<svg class="typst-doc" viewBox="0 0 96.18468503942003 100.81468503937008" width="96.18468503942003pt" height="100.81468503937008pt" xmlns="http://www.w3.org/2000/svg" xmlns:xlink="http://www.w3.org/1999/xlink" xmlns:h5="http://www.w3.org/1999/xhtml">
    <g>
        <g class="typst-group" transform="matrix(1 0 0 1 4 4)">
            <g>
                <g class="typst-group">
                    <g>
                        <path class="typst-shape" fill="none" stroke="#000000" stroke-width="0.48" stroke-linecap="round" stroke-linejoin="miter" stroke-miterlimit="4" transform="matrix(1 0 0 1 12.964519656908049 16.88000000000001)" d="M 0 0h 53.745167 "/>
                        <path class="typst-shape" fill="none" stroke="#000000" stroke-width="0.48" stroke-linecap="round" stroke-linejoin="miter" stroke-miterlimit="4" transform="matrix(1 0 0 1 64.8247245726802 16.880000094488192)" d="M 0 0m 1.8849607 0 c -0.9677618 0.44512072 -1.6671271 1.3227704 -1.8849607 2.3654802 "/>
                        <path class="typst-shape" fill="none" stroke="#000000" stroke-width="0.48" stroke-linecap="round" stroke-linejoin="miter" stroke-miterlimit="4" transform="matrix(1 0 0 1 64.8247245726802 14.514519817832644)" d="M 0 0m 1.8849607 2.3654802 c -0.9677618 -0.44512057 -1.6671271 -1.3227702 -1.8849607 -2.3654802 "/>
                        <path class="typst-shape" fill="none" transform="matrix(1 0 0 1 35.057102300919915 0)" d="M 0 0h 9.8 v 12.88 h -9.8 v -12.88 Z "/>
                        <g class="typst-group">
                            <g>
                                <g class="typst-group" transform="matrix(1 0 0 1 35.05710219068369 -0.00000003149605664640242)">
                                    <g>
                                        <g class="typst-group">
                                            <g>
                                                <g class="typst-group">
                                                    <g>
                                                        <g class="typst-text" transform="matrix(1 0 0 -1 2 8.83)">
                                                            <use xlink:href="#gDE8AD37632EE0391FAE149D6B98C9A2C" x="0" y="0" fill="#dcd7ba" fill-rule="nonzero"/>
                                                        </g>
                                                    </g>
                                                </g>
                                            </g>
                                        </g>
                                    </g>
                                </g>
                            </g>
                        </g>
                        <path class="typst-shape" fill="none" stroke="#000000" stroke-width="0.48" stroke-linecap="round" stroke-linejoin="miter" stroke-miterlimit="4" transform="matrix(1 0 0 1 9.806367428574324 24.289772503900856)" d="M 0 0l 58.271416 57.59401 "/>
                        <path class="typst-shape" fill="none" stroke="#000000" stroke-width="0.48" stroke-linecap="round" stroke-linejoin="miter" stroke-miterlimit="4" transform="matrix(1 0 0 1 65.07430351532696 81.68183310497466)" d="M 0 0m 3.0034783 0.20194769 c -1.0012023 -0.36371619 -2.1155646 -0.23113316 -3.0034783 0.3573436 "/>
                        <path class="typst-shape" fill="none" stroke="#000000" stroke-width="0.48" stroke-linecap="round" stroke-linejoin="miter" stroke-miterlimit="4" transform="matrix(1 0 0 1 67.86220704183937 78.87632958088142)" d="M 0 0m 0.21557488 3.0074513 c -0.3753975 -0.9968815 -0.2558528 -2.1127176 0.3222022 -3.0074513 "/>
                        <path class="typst-shape" fill="none" transform="matrix(1 0 0 1 41.839264666321384 37.4462171601263)" d="M 0 0h 23.384445 v 12.88 h -23.384445 v -12.88 Z "/>
                        <g class="typst-group">
                            <g>
                                <g class="typst-group" transform="matrix(1 0 0 1 41.83926458933101 37.446217128630266)">
                                    <g>
                                        <g class="typst-group">
                                            <g>
                                                <g class="typst-group">
                                                    <g>
                                                        <g class="typst-text" transform="matrix(1 0 0 -1 2 8.83)">
                                                            <use xlink:href="#g4B06A8FC0D669705283F66C557B17C19" x="0" y="0" fill="#dcd7ba" fill-rule="nonzero"/>
                                                        </g>
                                                        <g class="typst-text" transform="matrix(1 0 0 -1 9.242222222222221 8.83)">
                                                            <use xlink:href="#gC4AC14EEF30AD3280D9DD6603A0610B7" x="0" y="0" fill="#dcd7ba" fill-rule="nonzero"/>
                                                        </g>
                                                        <g class="typst-text" transform="matrix(1 0 0 -1 15.584444444444443 8.83)">
                                                            <use xlink:href="#gDE8AD37632EE0391FAE149D6B98C9A2C" x="0" y="0" fill="#dcd7ba" fill-rule="nonzero"/>
                                                        </g>
                                                    </g>
                                                </g>
                                            </g>
                                        </g>
                                    </g>
                                </g>
                            </g>
                        </g>
                        <path class="typst-shape" fill="none" stroke="#000000" stroke-width="0.48" stroke-linecap="round" stroke-linejoin="miter" stroke-miterlimit="4" transform="matrix(1 0 0 1 75.16468503942005 26.295000094488273)" d="M 0 0l 0.0000000000000125883555 52.752956 "/>
                        <path class="typst-shape" fill="none" stroke="#000000" stroke-width="0.48" stroke-linecap="round" stroke-linejoin="miter" stroke-miterlimit="4" transform="matrix(1 0 0 1 72.79920466827633 77.16299408444124)" d="M 0 0m 2.3654802 1.8849607 c -0.44512057 -0.9677618 -1.3227702 -1.6671271 -2.3654802 -1.8849607 "/>
                        <path class="typst-shape" fill="none" stroke="#000000" stroke-width="0.48" stroke-linecap="round" stroke-linejoin="miter" stroke-miterlimit="4" transform="matrix(1 0 0 1 75.16468494493188 77.16299408444124)" d="M 0 0m 0 1.8849607 c 0.44512072 -0.9677618 1.3227704 -1.6671271 2.3654802 -1.8849607 "/>
                        <path class="typst-shape" fill="none" transform="matrix(1 0 0 1 79.16468503942005 46.351477477448164)" d="M 0 0h 9.02 v 12.88 h -9.02 v -12.88 Z "/>
                        <g class="typst-group">
                            <g>
                                <g class="typst-group" transform="matrix(1 0 0 1 79.1646849764279 46.351477445952106)">
                                    <g>
                                        <g class="typst-group">
                                            <g>
                                                <g class="typst-group">
                                                    <g>
                                                        <g class="typst-text" transform="matrix(1 0 0 -1 2 8.83)">
                                                            <use xlink:href="#g4B06A8FC0D669705283F66C557B17C19" x="0" y="0" fill="#dcd7ba" fill-rule="nonzero"/>
                                                        </g>
                                                    </g>
                                                </g>
                                            </g>
                                        </g>
                                    </g>
                                </g>
                            </g>
                        </g>
                        <path class="typst-shape" fill="none" transform="matrix(1 0 0 1 0 13.465000000000007)" d="M 0 0h 5.29 v 6.83 h -5.29 l -0.0000000000000031470889 -6.83 Z "/>
                        <g class="typst-group">
                            <g>
                                <g class="typst-group" transform="matrix(1 0 0 1 -0.00000007869015655704448 13.464999889763787)">
                                    <g>
                                        <g class="typst-group">
                                            <g>
                                                <g class="typst-text" transform="matrix(1 0 0 -1 0.00000000004999938171277167 6.83)">
                                                    <use xlink:href="#gEEAD12A16A2AD12382D7F0A685A2310D" x="0" y="0" fill="#dcd7ba" fill-rule="nonzero"/>
                                                </g>
                                            </g>
                                        </g>
                                    </g>
                                </g>
                            </g>
                        </g>
                        <path class="typst-shape" fill="none" transform="matrix(1 0 0 1 72.94968503937008 13.465000000000007)" d="M 0 0h 4.43 v 6.83 h -4.43 v -6.83 Z "/>
                        <g class="typst-group">
                            <g>
                                <g class="typst-group" transform="matrix(1 0 0 1 72.94968497642795 13.464999889763787)">
                                    <g>
                                        <g class="typst-group">
                                            <g>
                                                <g class="typst-text" transform="matrix(1 0 0 -1 0.000000000050000276884722236 6.83)">
                                                    <use xlink:href="#gA9792173B94046D6C54471EF59CA4720" x="0" y="0" fill="#dcd7ba" fill-rule="nonzero"/>
                                                </g>
                                            </g>
                                        </g>
                                    </g>
                                </g>
                            </g>
                        </g>
                        <path class="typst-shape" fill="none" transform="matrix(1 0 0 1 72.87468503937008 85.98468503937008)" d="M 0 0h 4.58 v 6.83 h -4.58 v -6.83 Z "/>
                        <g class="typst-group">
                            <g>
                                <g class="typst-group" transform="matrix(1 0 0 1 72.87468492918386 85.98468492913386)">
                                    <g>
                                        <g class="typst-group">
                                            <g>
                                                <g class="typst-text" transform="matrix(1 0 0 -1 0.00000000004999938171277167 6.83)">
                                                    <use xlink:href="#g25F14960CA19A82C43C2C8C446F45E0A" x="0" y="0" fill="#dcd7ba" fill-rule="nonzero"/>
                                                </g>
                                            </g>
                                        </g>
                                    </g>
                                </g>
                            </g>
                        </g>
                    </g>
                </g>
            </g>
        </g>
    </g>
    <defs id="glyph">
        <symbol id="gDE8AD37632EE0391FAE149D6B98C9A2C" overflow="visible">
            <path d="M 0 0m 5.52 6.33 c 0 0.44000006 -0.4300003 0.7199998 -0.9000001 0.7199998 c -0.6199999 0 -1.05 -0.4000001 -1.28 -1.19 c -0.049999952 -0.17999983 -0.16000009 -0.6899996 -0.31999993 -1.5299997 h -0.6500001 c -0.22000003 0 -0.32999992 -0.010000229 -0.32999992 -0.21999979 c 0 -0.11000013 0.099999905 -0.16000032 0.30999994 -0.16000032 h 0.60000014 l -0.73 -3.87 c -0.11000013 -0.57 -0.21000004 -0.98999995 -0.30000007 -1.27 c -0.120000005 -0.37 -0.28999996 -0.56000006 -0.51 -0.56000006 c -0.14999998 0 -0.26999998 0.04000008 -0.38 0.110000014 c 0.32000005 0.05000007 0.48000002 0.24000001 0.48000002 0.56000006 c 0 0.25999993 -0.13 0.38999993 -0.39999998 0.38999993 c -0.34000003 0 -0.58000004 -0.29999995 -0.58000004 -0.6399999 c 0 -0.44000006 0.41000003 -0.72 0.88 -0.72 c 0.25 0 0.48000002 0.100000024 0.66999996 0.30999994 c 0.31999993 0.33000004 0.56999993 0.8 0.75 1.4300001 c 0.109999895 0.39 0.21000004 0.77 0.27999997 1.15 l 0.5799999 3.11 h 0.81999993 c 0.23000002 0 0.32999992 0.00999999 0.32999992 0.24000025 c 0 0.089999676 -0.099999905 0.13999987 -0.2999997 0.13999987 h -0.77 c 0.059999943 0.40999985 0.34000015 1.9200001 0.42999983 2.1100001 c 0.099999905 0.20999956 0.24000025 0.30999994 0.42000008 0.30999994 c 0.1500001 0 0.2800002 -0.03999996 0.38999987 -0.11000013 c -0.30999994 -0.07000017 -0.4699998 -0.25 -0.4699998 -0.55999994 c 0 -0.26000023 0.13000011 -0.38999987 0.4000001 -0.38999987 c 0.33999968 0 0.5799999 0.2999997 0.5799999 0.63999987 Z "/>
        </symbol>
        <symbol id="g4B06A8FC0D669705283F66C557B17C19" overflow="visible">
            <path d="M 0 0m 0.14999999 -1.41 c 0 -0.42999995 0.45 -0.64 1.35 -0.64 c 0.4699999 0 0.90999985 0.120000005 1.3 0.35000002 c 0.44000006 0.26 0.71000004 0.6099999 0.81999993 1.04 l 1.0900002 4.39 c 0.01999998 0.099999905 0.029999733 0.15999985 0.029999733 0.18999982 c 0 0.20000005 -0.10999966 0.29999995 -0.3199997 0.29999995 c -0.22000027 0 -0.36000013 -0.119999886 -0.43000007 -0.3499999 c -0.22000003 0.3699999 -0.52 0.5500002 -0.8900001 0.5500002 c -0.63999987 0 -1.2099999 -0.32000017 -1.6999999 -0.96000004 c -0.45 -0.60000014 -0.68 -1.23 -0.68 -1.8800001 c 0 -0.86999995 0.51000005 -1.6099999 1.3499999 -1.6099999 c 0.3900001 0 0.75 0.17 1.0799999 0.5 l -0.29999995 -1.18 c -0.28999996 -0.69 -0.74 -1.04 -1.3699999 -1.04 c -0.26 0 -0.48000002 0.01999998 -0.66 0.060000062 c 0.20999998 0.110000014 0.31 0.27999997 0.31 0.51 c 0 0.24999994 -0.14000005 0.38 -0.41000003 0.38 c -0.32 0 -0.57 -0.29000008 -0.57 -0.61 Z m 3.4099998 5.33 c 0.20000005 -0.21000004 0.29999995 -0.40999985 0.29999995 -0.6099999 c 0 -0.00999999 -0.00999999 -0.059999943 -0.029999971 -0.13000011 l -0.47000003 -1.8899999 c -0.059999943 -0.23000002 -0.23000002 -0.46999997 -0.5 -0.69 c -0.26999998 -0.21999997 -0.53 -0.32999998 -0.76 -0.32999998 c -0.39999998 0 -0.5999999 0.29000002 -0.5999999 0.87 c 0 0.54999995 0.3399999 1.7699999 0.53999996 2.13 c 0.30999994 0.56999993 0.6600001 0.8499999 1.0699999 0.8499999 c 0.18000007 0 0.32999992 -0.07000017 0.45000005 -0.20000005 Z "/>
        </symbol>
        <symbol id="gC4AC14EEF30AD3280D9DD6603A0610B7" overflow="visible">
            <path d="M 0 0m 3.56 2.5 c 0 0.5 -0.089999914 0.71000004 -0.44000006 1.06 c -0.28999996 0.28999996 -0.64999986 0.44000006 -1.06 0.44000006 c -0.81999993 0 -1.5 -0.68000007 -1.5 -1.5 c 0 -0.82000005 0.68 -1.5 1.5 -1.5 c 0.81999993 0 1.5 0.67999995 1.5 1.5 Z m -0.47000003 0 c 0 -0.42000008 -0.059999943 -0.5 -0.29999995 -0.73 c -0.20000005 -0.20000005 -0.44000006 -0.30000007 -0.73 -0.30000007 c -0.56999993 0 -1.03 0.46000004 -1.03 1.0300001 c 0 0.56999993 0.46000004 1.03 1.03 1.03 c 0.56999993 0 1.03 -0.46000004 1.03 -1.03 Z "/>
        </symbol>
        <symbol id="gEEAD12A16A2AD12382D7F0A685A2310D" overflow="visible">
            <path d="M 0 0m 4.98 1.4399999 c 0 0.09000003 -0.05000019 0.13999999 -0.16000032 0.13999999 c -0.07999992 0 -0.13999987 -0.06999993 -0.1699996 -0.20999992 c -0.20000029 -0.79 -0.44000006 -1.19 -0.7100003 -1.19 c -0.16999984 0 -0.26 0.14 -0.26 0.41999996 c 0 0.13 0.0400002 0.37 0.13000011 0.71999997 l 0.5700002 2.25 c 0.049999714 0.19000006 0.069999695 0.29999995 0.069999695 0.3499999 c 0 0.20000005 -0.11000013 0.29999995 -0.32999992 0.29999995 c -0.21000004 0 -0.3499999 -0.119999886 -0.42000008 -0.3499999 c -0.2099998 0.3699999 -0.51 0.5500002 -0.88999987 0.5500002 c -0.6500001 0 -1.22 -0.3300004 -1.7199999 -0.99000025 c -0.46000004 -0.6199999 -0.69000006 -1.26 -0.69000006 -1.9299998 c 0 -0.87 0.51 -1.61 1.35 -1.61 c 0.43000007 0 0.8499999 0.22999999 1.25 0.69 c 0.109999895 -0.38 0.4499998 -0.69 0.91999984 -0.69 c 0.6900003 0 0.89999986 0.81 1.0600002 1.55 Z m -1.5700002 2.3000002 c 0.09000015 -0.21000004 0.1400001 -0.35000014 0.1400001 -0.44000006 c 0 -0.03999996 -0.00999999 -0.089999914 -0.01999998 -0.16000009 l -0.49 -1.9199998 c -0.029999971 -0.110000014 -0.10000014 -0.23000008 -0.19000006 -0.35000002 c -0.3699999 -0.46 -0.73 -0.69 -1.0799999 -0.69 c -0.39 0 -0.59000003 0.3 -0.59000003 0.8899999 c 0 0.24000001 0.060000062 0.6 0.18000007 1.0799999 c 0.20999992 0.85000014 0.51 1.4200001 0.88 1.73 c 0.20000005 0.16999984 0.38999987 0.25000024 0.5799999 0.25000024 c 0.26999998 0 0.47000003 -0.13000011 0.5899999 -0.3900001 Z "/>
        </symbol>
        <symbol id="gA9792173B94046D6C54471EF59CA4720" overflow="visible">
            <path d="M 0 0m 2.81 4.45 c -0.3599999 0 -0.72 -0.17000008 -1.0699999 -0.51 l 0.6899998 2.8500001 c -0.01999998 0.089999676 -0.049999952 0.1500001 -0.16999984 0.1500001 c -0.33000004 0 -1.0600001 -0.09000015 -1.19 -0.10000038 c -0.14999998 -0.01999998 -0.22999996 -0.089999676 -0.22999996 -0.23999977 c 0 -0.099999905 0.09000003 -0.1500001 0.28000003 -0.1500001 c 0.18999994 0 0.44999993 0.010000229 0.44999993 -0.13000011 c 0 -0.03999996 -0.049999952 -0.23999977 -0.13999999 -0.60999966 l -0.79999995 -3.22 c -0.110000014 -0.42000008 -0.16 -0.76 -0.16 -1.01 c 0 -0.86 0.46 -1.59 1.28 -1.59 c 0.64999986 0 1.22 0.32999998 1.72 1 c 0.4499998 0.62 0.68000007 1.2699999 0.68000007 1.9399999 c 0 0.8699999 -0.5100002 1.6199999 -1.3400002 1.6199999 Z m -0.01999998 -0.2999997 c 0.38999987 0 0.5799999 -0.3000002 0.5799999 -0.8900001 c 0 -0.26999998 -0.059999943 -0.6300001 -0.18000007 -1.0799999 c -0.21999979 -0.85000014 -0.51 -1.4300001 -0.8599999 -1.74 c -0.20000005 -0.17000002 -0.39 -0.25 -0.5799999 -0.25 c -0.4100001 0 -0.61 0.32 -0.61 0.96 c 0 0.22000003 0.049999952 0.54999995 0.14999998 0.9899999 l 0.22000003 0.9000001 c 0.029999971 0.14999986 0.07999992 0.26 0.13999999 0.3399999 c 0.39 0.51 0.76999986 0.7700002 1.14 0.7700002 Z "/>
        </symbol>
        <symbol id="g25F14960CA19A82C43C2C8C446F45E0A" overflow="visible">
            <path d="M 0 0m 3.28 3.25 c 0 -0.25 0.12999988 -0.3800001 0.39999986 -0.3800001 c 0.36000013 0 0.59000015 0.30999994 0.59000015 0.6700001 c 0 0.55999994 -0.59000015 0.8800001 -1.19 0.8800001 c -0.69000006 0 -1.3199999 -0.3000002 -1.8599999 -0.8900001 c -0.54 -0.59000015 -0.81000006 -1.24 -0.81000006 -1.94 c 0 -0.9799999 0.65 -1.6999999 1.63 -1.6999999 c 0.53 0 1 0.13 1.4099998 0.38 c 0.34000015 0.21000001 0.59000015 0.42000002 0.75 0.63 c 0.07000017 0.089999974 0.099999905 0.15999997 0.099999905 0.19000006 c 0 0.109999895 -0.049999714 0.16999996 -0.15999985 0.16999996 c -0.05000019 0 -0.099999905 -0.03999996 -0.15999985 -0.120000005 c -0.33000016 -0.44 -0.74 -0.72 -1.21 -0.84000003 c -0.30999994 -0.07999998 -0.53999996 -0.11999999 -0.71000004 -0.11999999 c -0.56999993 0 -0.85 0.34999996 -0.85 1.0400001 c 0 0.6199999 0.29000008 1.52 0.5300001 1.9499998 c 0.23999989 0.44000006 0.75 0.9600003 1.3399999 0.9600003 c 0.3800001 0 0.6400001 -0.11000013 0.78 -0.32000017 c -0.30999994 -0.029999971 -0.5799999 -0.23000002 -0.5799999 -0.55999994 Z "/>
        </symbol>
    </defs>
</svg>
