<svg class="typst-doc" viewBox="0 0 193.95275590551182 115.61763779527561" width="193.95275590551182pt" height="115.61763779527561pt" xmlns="http://www.w3.org/2000/svg" xmlns:xlink="http://www.w3.org/1999/xlink" xmlns:h5="http://www.w3.org/1999/xhtml">
    <g>
        <g class="typst-group" transform="matrix(1 0 0 1 4 4)">
            <g>
                <path class="typst-shape" fill="#dcd7ba" fill-rule="nonzero" stroke="#000000" stroke-width="1" stroke-linecap="butt" stroke-linejoin="miter" stroke-miterlimit="4" transform="matrix(1 0 0 1 0 24.09448818897638)" d="M 0 0m 2.2677166 0 c -1.2512898 0 -2.2677166 1.0164268 -2.2677166 2.2677166 c 0 0 0 0 0 0 c 0 1.2512896 1.0164268 2.2677166 2.2677166 2.2677166 c 0 0 0 0 0 0 c 1.2512896 0 2.2677166 -1.016427 2.2677166 -2.2677166 c 0 0 0 0 0 0 c 0 -1.2512898 -1.016427 -2.2677166 -2.2677166 -2.2677166 c 0 0 0 0 0 0 Z "/>
                <path class="typst-shape" fill="#dcd7ba" fill-rule="nonzero" stroke="#000000" stroke-width="1" stroke-linecap="butt" stroke-linejoin="miter" stroke-miterlimit="4" transform="matrix(1 0 0 1 28.346456692913385 24.09448818897638)" d="M 0 0m 2.2677166 0 c -1.2512898 0 -2.2677166 1.0164268 -2.2677166 2.2677166 c 0 0 0 0 0 0 c 0 1.2512896 1.0164268 2.2677166 2.2677166 2.2677166 c 0 0 0 0 0 0 c 1.2512896 0 2.2677166 -1.016427 2.2677166 -2.2677166 c 0 0 0 0 0 0 c 0 -1.2512898 -1.016427 -2.2677166 -2.2677166 -2.2677166 c 0 0 0 0 0 0 Z "/>
                <path class="typst-shape" fill="#dcd7ba" fill-rule="nonzero" stroke="#000000" stroke-width="1" stroke-linecap="butt" stroke-linejoin="miter" stroke-miterlimit="4" transform="matrix(1 0 0 1 14.173228346456693 0)" d="M 0 0m 2.2677166 0 c -1.2512898 0 -2.2677166 1.0164268 -2.2677166 2.2677166 c 0 0 0 0 0 0 c 0 1.2512896 1.0164268 2.2677166 2.2677166 2.2677166 c 0 0 0 0 0 0 c 1.2512896 0 2.2677166 -1.016427 2.2677166 -2.2677166 c 0 0 0 0 0 0 c 0 -1.2512898 -1.016427 -2.2677166 -2.2677166 -2.2677166 c 0 0 0 0 0 0 Z "/>
                <path class="typst-shape" fill="none" transform="matrix(1 0 0 1 12.364444881889764 35.88543307086615)" d="M 0 0c 0 0 8.153 0 8.153 0 c 0 0 0 9.3 0 9.3 c 0 0 -8.153 0 -8.153 0 c 0 0 0 0 0 0 c 0 0 0 -9.3 0 -9.3 c 0 0 0 0 0 0 Z "/>
                <g class="typst-group">
                    <g>
                        <g class="typst-group" transform="matrix(1 0 0 1 12.364444771653543 35.88543297637796)">
                            <g>
                                <g class="typst-text" transform="matrix(1 0 0 -1 0 6.830000000000001)">
                                    <use xlink:href="#gA2150BA0FEEA9CFA6C5EFE029EC48270" x="0" y="0" fill="#dcd7ba" fill-rule="nonzero"/>
                                </g>
                                <g class="typst-text" transform="matrix(1 0 0 -1 3.61 9.3)">
                                    <use xlink:href="#gB44BB099F629C01DEFEB69D623EDDA8D" x="0" y="0" fill="#dcd7ba" fill-rule="nonzero"/>
                                </g>
                            </g>
                        </g>
                    </g>
                </g>
                <path class="typst-shape" fill="none" stroke="#dcd7ba" stroke-width="1" stroke-linecap="butt" stroke-linejoin="miter" stroke-miterlimit="4" transform="matrix(1 0 0 1 53.29133858267716 26.36220472440945)" d="M 0 0c 0 0 28.346457 0 28.346457 0 "/>
                <path class="typst-shape" fill="#dcd7ba" fill-rule="nonzero" stroke="#000000" stroke-width="1" stroke-linecap="butt" stroke-linejoin="miter" stroke-miterlimit="4" transform="matrix(1 0 0 1 51.023622047244096 24.09448818897638)" d="M 0 0m 2.2677166 0 c -1.2512898 0 -2.2677166 1.0164268 -2.2677166 2.2677166 c 0 0 0 0 0 0 c 0 1.2512896 1.0164268 2.2677166 2.2677166 2.2677166 c 0 0 0 0 0 0 c 1.2512896 0 2.2677166 -1.016427 2.2677166 -2.2677166 c 0 0 0 0 0 0 c 0 -1.2512898 -1.016427 -2.2677166 -2.2677166 -2.2677166 c 0 0 0 0 0 0 Z "/>
                <path class="typst-shape" fill="#dcd7ba" fill-rule="nonzero" stroke="#000000" stroke-width="1" stroke-linecap="butt" stroke-linejoin="miter" stroke-miterlimit="4" transform="matrix(1 0 0 1 79.37007874015748 24.09448818897638)" d="M 0 0m 2.2677166 0 c -1.2512898 0 -2.2677166 1.0164268 -2.2677166 2.2677166 c 0 0 0 0 0 0 c 0 1.2512896 1.0164268 2.2677166 2.2677166 2.2677166 c 0 0 0 0 0 0 c 1.2512896 0 2.2677166 -1.016427 2.2677166 -2.2677166 c 0 0 0 0 0 0 c 0 -1.2512898 -1.016427 -2.2677166 -2.2677166 -2.2677166 c 0 0 0 0 0 0 Z "/>
                <path class="typst-shape" fill="#dcd7ba" fill-rule="nonzero" stroke="#000000" stroke-width="1" stroke-linecap="butt" stroke-linejoin="miter" stroke-miterlimit="4" transform="matrix(1 0 0 1 65.19685039370079 0)" d="M 0 0m 2.2677166 0 c -1.2512898 0 -2.2677166 1.0164268 -2.2677166 2.2677166 c 0 0 0 0 0 0 c 0 1.2512896 1.0164268 2.2677166 2.2677166 2.2677166 c 0 0 0 0 0 0 c 1.2512896 0 2.2677166 -1.016427 2.2677166 -2.2677166 c 0 0 0 0 0 0 c 0 -1.2512898 -1.016427 -2.2677166 -2.2677166 -2.2677166 c 0 0 0 0 0 0 Z "/>
                <path class="typst-shape" fill="none" transform="matrix(1 0 0 1 63.38806692913386 35.88543307086615)" d="M 0 0c 0 0 8.153 0 8.153 0 c 0 0 0 9.3 0 9.3 c 0 0 -8.153 0 -8.153 0 c 0 0 0 0 0 0 c 0 0 0 -9.3 0 -9.3 c 0 0 0 0 0 0 Z "/>
                <g class="typst-group">
                    <g>
                        <g class="typst-group" transform="matrix(1 0 0 1 63.38806681889764 35.88543297637796)">
                            <g>
                                <g class="typst-text" transform="matrix(1 0 0 -1 0 6.830000000000001)">
                                    <use xlink:href="#gA2150BA0FEEA9CFA6C5EFE029EC48270" x="0" y="0" fill="#dcd7ba" fill-rule="nonzero"/>
                                </g>
                                <g class="typst-text" transform="matrix(1 0 0 -1 3.61 9.3)">
                                    <use xlink:href="#g656EAC2DF9F216883E396E8EACB7A833" x="0" y="0" fill="#dcd7ba" fill-rule="nonzero"/>
                                </g>
                            </g>
                        </g>
                    </g>
                </g>
                <path class="typst-shape" fill="none" stroke="#dcd7ba" stroke-width="1" stroke-linecap="butt" stroke-linejoin="miter" stroke-miterlimit="4" transform="matrix(1 0 0 1 104.31496062992126 26.36220472440945)" d="M 0 0c 0 0 28.346457 0 28.346457 0 "/>
                <path class="typst-shape" fill="none" stroke="#dcd7ba" stroke-width="1" stroke-linecap="butt" stroke-linejoin="miter" stroke-miterlimit="4" transform="matrix(1 0 0 1 118.48818897637794 2.2677165354330726)" d="M 0 0m 14.173228 24.094488 c 0 0 -14.173228 -24.094488 -14.173228 -24.094488 "/>
                <path class="typst-shape" fill="#dcd7ba" fill-rule="nonzero" stroke="#000000" stroke-width="1" stroke-linecap="butt" stroke-linejoin="miter" stroke-miterlimit="4" transform="matrix(1 0 0 1 102.04724409448819 24.09448818897638)" d="M 0 0m 2.2677166 0 c -1.2512898 0 -2.2677166 1.0164268 -2.2677166 2.2677166 c 0 0 0 0 0 0 c 0 1.2512896 1.0164268 2.2677166 2.2677166 2.2677166 c 0 0 0 0 0 0 c 1.2512896 0 2.2677166 -1.016427 2.2677166 -2.2677166 c 0 0 0 0 0 0 c 0 -1.2512898 -1.016427 -2.2677166 -2.2677166 -2.2677166 c 0 0 0 0 0 0 Z "/>
                <path class="typst-shape" fill="#dcd7ba" fill-rule="nonzero" stroke="#000000" stroke-width="1" stroke-linecap="butt" stroke-linejoin="miter" stroke-miterlimit="4" transform="matrix(1 0 0 1 130.39370078740157 24.09448818897638)" d="M 0 0m 2.2677166 0 c -1.2512898 0 -2.2677166 1.0164268 -2.2677166 2.2677166 c 0 0 0 0 0 0 c 0 1.2512896 1.0164268 2.2677166 2.2677166 2.2677166 c 0 0 0 0 0 0 c 1.2512896 0 2.2677166 -1.016427 2.2677166 -2.2677166 c 0 0 0 0 0 0 c 0 -1.2512898 -1.016427 -2.2677166 -2.2677166 -2.2677166 c 0 0 0 0 0 0 Z "/>
                <path class="typst-shape" fill="#dcd7ba" fill-rule="nonzero" stroke="#000000" stroke-width="1" stroke-linecap="butt" stroke-linejoin="miter" stroke-miterlimit="4" transform="matrix(1 0 0 1 116.22047244094487 0)" d="M 0 0m 2.2677166 0 c -1.2512898 0 -2.2677166 1.0164268 -2.2677166 2.2677166 c 0 0 0 0 0 0 c 0 1.2512896 1.0164268 2.2677166 2.2677166 2.2677166 c 0 0 0 0 0 0 c 1.2512896 0 2.2677166 -1.016427 2.2677166 -2.2677166 c 0 0 0 0 0 0 c 0 -1.2512898 -1.016427 -2.2677166 -2.2677166 -2.2677166 c 0 0 0 0 0 0 Z "/>
                <path class="typst-shape" fill="none" transform="matrix(1 0 0 1 114.41168897637793 35.81543307086614)" d="M 0 0c 0 0 8.153 0 8.153 0 c 0 0 0 9.44 0 9.44 c 0 0 -8.153 0 -8.153 0 c 0 0 0 0 0 0 c 0 0 0 -9.44 0 -9.44 c 0 0 0 0 0 0 Z "/>
                <g class="typst-group">
                    <g>
                        <g class="typst-group" transform="matrix(1 0 0 1 114.41168886614172 35.81543296062993)">
                            <g>
                                <g class="typst-text" transform="matrix(1 0 0 -1 0 6.830000000000001)">
                                    <use xlink:href="#gA2150BA0FEEA9CFA6C5EFE029EC48270" x="0" y="0" fill="#dcd7ba" fill-rule="nonzero"/>
                                </g>
                                <g class="typst-text" transform="matrix(1 0 0 -1 3.61 9.3)">
                                    <use xlink:href="#g58E7EEB5FE904E7590E3909A39E3EE8" x="0" y="0" fill="#dcd7ba" fill-rule="nonzero"/>
                                </g>
                            </g>
                        </g>
                    </g>
                </g>
                <path class="typst-shape" fill="none" stroke="#dcd7ba" stroke-width="1" stroke-linecap="butt" stroke-linejoin="miter" stroke-miterlimit="4" transform="matrix(1 0 0 1 155.33858267716536 26.36220472440945)" d="M 0 0c 0 0 28.346457 0 28.346457 0 "/>
                <path class="typst-shape" fill="none" stroke="#dcd7ba" stroke-width="1" stroke-linecap="butt" stroke-linejoin="miter" stroke-miterlimit="4" transform="matrix(1 0 0 1 169.51181102362204 2.2677165354330726)" d="M 0 0m 14.173228 24.094488 c 0 0 -14.173228 -24.094488 -14.173228 -24.094488 "/>
                <path class="typst-shape" fill="none" stroke="#dcd7ba" stroke-width="1" stroke-linecap="butt" stroke-linejoin="miter" stroke-miterlimit="4" transform="matrix(1 0 0 1 155.33858267716536 2.2677165354330726)" d="M 0 0m 14.173228 0 c 0 0 -14.173228 24.094488 -14.173228 24.094488 "/>
                <path class="typst-shape" fill="#dcd7ba" fill-rule="nonzero" stroke="#000000" stroke-width="1" stroke-linecap="butt" stroke-linejoin="miter" stroke-miterlimit="4" transform="matrix(1 0 0 1 153.0708661417323 24.09448818897638)" d="M 0 0m 2.2677166 0 c -1.2512898 0 -2.2677166 1.0164268 -2.2677166 2.2677166 c 0 0 0 0 0 0 c 0 1.2512896 1.0164268 2.2677166 2.2677166 2.2677166 c 0 0 0 0 0 0 c 1.2512896 0 2.2677166 -1.016427 2.2677166 -2.2677166 c 0 0 0 0 0 0 c 0 -1.2512898 -1.016427 -2.2677166 -2.2677166 -2.2677166 c 0 0 0 0 0 0 Z "/>
                <path class="typst-shape" fill="#dcd7ba" fill-rule="nonzero" stroke="#000000" stroke-width="1" stroke-linecap="butt" stroke-linejoin="miter" stroke-miterlimit="4" transform="matrix(1 0 0 1 181.41732283464566 24.09448818897638)" d="M 0 0m 2.2677166 0 c -1.2512898 0 -2.2677166 1.0164268 -2.2677166 2.2677166 c 0 0 0 0 0 0 c 0 1.2512896 1.0164268 2.2677166 2.2677166 2.2677166 c 0 0 0 0 0 0 c 1.2512896 0 2.2677166 -1.016427 2.2677166 -2.2677166 c 0 0 0 0 0 0 c 0 -1.2512898 -1.016427 -2.2677166 -2.2677166 -2.2677166 c 0 0 0 0 0 0 Z "/>
                <path class="typst-shape" fill="#dcd7ba" fill-rule="nonzero" stroke="#000000" stroke-width="1" stroke-linecap="butt" stroke-linejoin="miter" stroke-miterlimit="4" transform="matrix(1 0 0 1 167.24409448818898 0)" d="M 0 0m 2.2677166 0 c -1.2512898 0 -2.2677166 1.0164268 -2.2677166 2.2677166 c 0 0 0 0 0 0 c 0 1.2512896 1.0164268 2.2677166 2.2677166 2.2677166 c 0 0 0 0 0 0 c 1.2512896 0 2.2677166 -1.016427 2.2677166 -2.2677166 c 0 0 0 0 0 0 c 0 -1.2512898 -1.016427 -2.2677166 -2.2677166 -2.2677166 c 0 0 0 0 0 0 Z "/>
                <path class="typst-shape" fill="none" transform="matrix(1 0 0 1 165.43531102362206 35.88543307086615)" d="M 0 0c 0 0 8.153 0 8.153 0 c 0 0 0 9.3 0 9.3 c 0 0 -8.153 0 -8.153 0 c 0 0 0 0 0 0 c 0 0 0 -9.3 0 -9.3 c 0 0 0 0 0 0 Z "/>
                <g class="typst-group">
                    <g>
                        <g class="typst-group" transform="matrix(1 0 0 1 165.43531091338582 35.88543297637796)">
                            <g>
                                <g class="typst-text" transform="matrix(1 0 0 -1 0 6.830000000000001)">
                                    <use xlink:href="#gA2150BA0FEEA9CFA6C5EFE029EC48270" x="0" y="0" fill="#dcd7ba" fill-rule="nonzero"/>
                                </g>
                                <g class="typst-text" transform="matrix(1 0 0 -1 3.61 9.3)">
                                    <use xlink:href="#gB4740019BBEFA325E87F60AF666CF662" x="0" y="0" fill="#dcd7ba" fill-rule="nonzero"/>
                                </g>
                            </g>
                        </g>
                    </g>
                </g>
                <path class="typst-shape" fill="#cce5ff" fill-rule="nonzero" stroke="#dcd7ba" stroke-width="1" stroke-linecap="butt" stroke-linejoin="miter" stroke-miterlimit="4" transform="matrix(1 0 0 1 78.80314960629921 64.62992125984252)" d="M 0 0m 0 24.094488 c 0 0 28.346457 0 28.346457 0 c 0 0 -14.173228 -24.094488 -14.173228 -24.094488 c 0 0 0 0 0 0 c 0 0 -14.173228 24.094488 -14.173228 24.094488 c 0 0 0 0 0 0 Z "/>
                <path class="typst-shape" fill="#dcd7ba" fill-rule="nonzero" stroke="#000000" stroke-width="1" stroke-linecap="butt" stroke-linejoin="miter" stroke-miterlimit="4" transform="matrix(1 0 0 1 76.53543307086615 86.45669291338584)" d="M 0 0m 2.2677166 0 c -1.2512898 0 -2.2677166 1.0164268 -2.2677166 2.2677166 c 0 0 0 0 0 0 c 0 1.2512896 1.0164268 2.2677166 2.2677166 2.2677166 c 0 0 0 0 0 0 c 1.2512896 0 2.2677166 -1.016427 2.2677166 -2.2677166 c 0 0 0 0 0 0 c 0 -1.2512898 -1.016427 -2.2677166 -2.2677166 -2.2677166 c 0 0 0 0 0 0 Z "/>
                <path class="typst-shape" fill="#dcd7ba" fill-rule="nonzero" stroke="#000000" stroke-width="1" stroke-linecap="butt" stroke-linejoin="miter" stroke-miterlimit="4" transform="matrix(1 0 0 1 104.88188976377953 86.45669291338584)" d="M 0 0m 2.2677166 0 c -1.2512898 0 -2.2677166 1.0164268 -2.2677166 2.2677166 c 0 0 0 0 0 0 c 0 1.2512896 1.0164268 2.2677166 2.2677166 2.2677166 c 0 0 0 0 0 0 c 1.2512896 0 2.2677166 -1.016427 2.2677166 -2.2677166 c 0 0 0 0 0 0 c 0 -1.2512898 -1.016427 -2.2677166 -2.2677166 -2.2677166 c 0 0 0 0 0 0 Z "/>
                <path class="typst-shape" fill="#dcd7ba" fill-rule="nonzero" stroke="#000000" stroke-width="1" stroke-linecap="butt" stroke-linejoin="miter" stroke-miterlimit="4" transform="matrix(1 0 0 1 90.70866141732283 62.36220472440946)" d="M 0 0m 2.2677166 0 c -1.2512898 0 -2.2677166 1.0164268 -2.2677166 2.2677166 c 0 0 0 0 0 0 c 0 1.2512896 1.0164268 2.2677166 2.2677166 2.2677166 c 0 0 0 0 0 0 c 1.2512896 0 2.2677166 -1.016427 2.2677166 -2.2677166 c 0 0 0 0 0 0 c 0 -1.2512898 -1.016427 -2.2677166 -2.2677166 -2.2677166 c 0 0 0 0 0 0 Z "/>
                <path class="typst-shape" fill="none" transform="matrix(1 0 0 1 88.89987795275592 98.1776377952756)" d="M 0 0c 0 0 8.153 0 8.153 0 c 0 0 0 9.44 0 9.44 c 0 0 -8.153 0 -8.153 0 c 0 0 0 0 0 0 c 0 0 0 -9.44 0 -9.44 c 0 0 0 0 0 0 Z "/>
                <g class="typst-group">
                    <g>
                        <g class="typst-group" transform="matrix(1 0 0 1 88.89987784251969 98.17763768503939)">
                            <g>
                                <g class="typst-text" transform="matrix(1 0 0 -1 0 6.830000000000001)">
                                    <use xlink:href="#gA2150BA0FEEA9CFA6C5EFE029EC48270" x="0" y="0" fill="#dcd7ba" fill-rule="nonzero"/>
                                </g>
                                <g class="typst-text" transform="matrix(1 0 0 -1 3.61 9.3)">
                                    <use xlink:href="#gE4493294C4934BDC2676DEEF8C56E5E" x="0" y="0" fill="#dcd7ba" fill-rule="nonzero"/>
                                </g>
                            </g>
                        </g>
                    </g>
                </g>
            </g>
        </g>
    </g>
    <defs id="glyph">
        <symbol id="gA2150BA0FEEA9CFA6C5EFE029EC48270" overflow="visible">
            <path d="M 0 0m 3.3 4.19 c 0 0.089999676 -0.10000014 0.13999987 -0.30999994 0.13999987 h -0.80999994 c 0.26 1.04 0.38999987 1.5799999 0.38999987 1.6199999 c 0 0.21000004 -0.109999895 0.30999994 -0.31999993 0.30999994 c -0.23000002 0 -0.37 -0.13000011 -0.43000007 -0.38999987 l -0.37 -1.54 h -0.8899999 c -0.22 0 -0.33 -0.010000229 -0.33 -0.21999979 c 0 -0.11000013 0.099999994 -0.16000032 0.30999997 -0.16000032 h 0.81000006 c -0.49000007 -1.9499998 -0.73 -2.9799998 -0.73 -3.11 c 0 -0.55999994 0.38 -0.95 0.93999994 -0.95 c 0.38 0 0.71000004 0.17 1 0.52 c 0.24000001 0.29 0.4100001 0.56999993 0.52 0.84000003 c 0.03999996 0.110000014 0.059999943 0.16999996 0.059999943 0.19999993 c 0 0.09000003 -0.049999952 0.13999999 -0.14999986 0.13999999 c -0.08000016 0 -0.1400001 -0.049999952 -0.18000007 -0.15999997 c -0.3399999 -0.83 -0.75 -1.24 -1.24 -1.24 c -0.16999996 0 -0.26 0.13999999 -0.26 0.40999997 c 0 0.15000004 0.01999998 0.31 0.060000062 0.46999997 l 0.7099999 2.8799999 h 0.8900001 c 0.26 0 0.32999992 0.02000022 0.32999992 0.24000025 Z "/>
        </symbol>
        <symbol id="gB44BB099F629C01DEFEB69D623EDDA8D" overflow="visible">
            <path d="M 0 0m 2.121 4.6480002 c -0.301 -0.29400015 -0.74899995 -0.44099998 -1.358 -0.44099998 v -0.3080001 c 0.413 0 0.742 0.062999964 0.9940001 0.18200016 v -3.4860003 c 0 -0.09100002 -0.0070000887 -0.14700001 -0.027999997 -0.17500001 c -0.035000086 -0.07699999 -0.245 -0.11900002 -0.6300001 -0.11900002 h -0.28699994 v -0.301 l 1.246 0.028 l 1.253 -0.028 v 0.301 h -0.28699994 c -0.385 0 -0.595 0.042000026 -0.6370001 0.11900002 c -0.013999939 0.027999997 -0.020999908 0.08399999 -0.020999908 0.17500001 v 3.8290002 c 0 0.18899965 -0.028000116 0.22399998 -0.24500012 0.22399998 Z "/>
        </symbol>
        <symbol id="g656EAC2DF9F216883E396E8EACB7A833" overflow="visible">
            <path d="M 0 0m 0.833 2.9680002 c 0.22400004 0 0.39200002 0.16799998 0.39200002 0.39199996 c 0 0.2520001 -0.13300002 0.385 -0.39200002 0.39199996 c 0.15400004 0.32900023 0.504 0.595 0.95900005 0.595 c 0.61599994 0 1.0220001 -0.4619999 1.0220001 -1.0780001 c 0 -0.33599997 -0.11899996 -0.658 -0.36400008 -0.97300005 c -0.11899996 -0.16100001 -0.21000004 -0.273 -0.273 -0.33599997 l -1.659 -1.645 c -0.09099999 -0.08399999 -0.07699999 -0.10499999 -0.07699999 -0.315 h 2.884 l 0.21700001 1.316 h -0.2939999 c -0.049000025 -0.37099993 -0.10500002 -0.58799994 -0.16799998 -0.63699996 c -0.035000086 -0.021000028 -0.2520001 -0.035000026 -0.6650002 -0.035000026 h -1.1899999 c 0.46899998 0.41300005 0.903 0.7840001 1.3160001 1.1130002 c 0.31500006 0.245 0.53900003 0.462 0.6789999 0.6509999 c 0.21000004 0.273 0.31500006 0.5600002 0.31500006 0.86100006 c 0 0.43400002 -0.16799998 0.77699995 -0.5109999 1.0290003 c -0.30100012 0.23099995 -0.67900014 0.3499999 -1.1270001 0.3499999 c -0.385 0 -0.714 -0.11199999 -1.001 -0.33599997 c -0.301 -0.24500036 -0.455 -0.5530002 -0.455 -0.93100023 c 0 -0.23799992 0.17499998 -0.41299987 0.392 -0.41299987 Z "/>
        </symbol>
        <symbol id="g58E7EEB5FE904E7590E3909A39E3EE8" overflow="visible">
            <path d="M 0 0m 2.4710002 2.4710002 c 0.46899986 0.18899989 0.9169998 0.602 0.9169998 1.197 c 0 0.31499982 -0.16799998 0.5669999 -0.49699998 0.7490001 c -0.273 0.1539998 -0.58099985 0.23099995 -0.924 0.23099995 c -0.34299994 0 -0.64399993 -0.07000017 -0.903 -0.21700001 c -0.315 -0.17500019 -0.476 -0.42000008 -0.476 -0.73500013 c 0 -0.26600003 0.13300002 -0.39899993 0.39200002 -0.39899993 c 0.21700001 0 0.37800002 0.16799998 0.37800002 0.385 c 0 0.21700001 -0.11199999 0.34299994 -0.329 0.37799978 c 0.20299995 0.21700001 0.50399995 0.329 0.91700006 0.329 c 0.45499992 0 0.714 -0.27299976 0.714 -0.7209997 c 0 -0.32900023 -0.09100008 -0.595 -0.26600003 -0.80500007 c -0.1960001 -0.23100019 -0.33599997 -0.26600003 -0.742 -0.29400015 c -0.18900001 -0.013999939 -0.31500006 0.0069999695 -0.31500006 -0.1329999 c 0 -0.08400011 0.07000005 -0.12599993 0.20300007 -0.12599993 h 0.37099993 c 0.602 0 0.89600015 -0.45500016 0.89600015 -1.0850002 c 0 -0.616 -0.27999997 -1.085 -0.86800015 -1.085 c -0.5109999 0 -0.88199997 0.14 -1.1129999 0.42700005 c 0.24499995 0.027999997 0.371 0.16799998 0.371 0.413 c 0 0.23100007 -0.17499995 0.40600002 -0.40600002 0.40600002 c -0.273 0 -0.413 -0.13999999 -0.413 -0.427 c 0 -0.35700005 0.18199998 -0.64400005 0.53900003 -0.84700006 c 0.301 -0.16800001 0.64399993 -0.252 1.036 -0.252 c 0.42700005 0 0.7980001 0.119 1.1200001 0.357 c 0.3499999 0.259 0.52499986 0.595 0.52499986 1.008 c 0 0.651 -0.5669999 1.0990001 -1.1269999 1.2460002 Z "/>
        </symbol>
        <symbol id="gB4740019BBEFA325E87F60AF666CF662" overflow="visible">
            <path d="M 0 0m 2.7580001 4.718 c -0.07700014 0 -0.14700007 -0.034999847 -0.20300007 -0.10500002 l -2.282 -3.192 v -0.28699994 h 2.023 v -0.53900003 c 0 -0.11900002 -0.020999908 -0.20300001 -0.06999993 -0.238 c -0.049000025 -0.035000026 -0.20300007 -0.056000024 -0.45500004 -0.056000024 h -0.21700001 v -0.301 l 1.057 0.028 l 1.0710001 -0.028 v 0.301 h -0.21000004 c -0.25900006 0 -0.4130001 0.020999998 -0.46200013 0.056000024 c -0.048999786 0.034999996 -0.06999993 0.11899999 -0.06999993 0.238 v 0.53900003 h 0.763 v 0.30799997 h -0.763 v 3.052 c 0 0.16800022 -0.020999908 0.22399998 -0.18199992 0.22399998 Z m -0.4130001 -0.8609998 v -2.415 h -1.7360001 Z "/>
        </symbol>
        <symbol id="gE4493294C4934BDC2676DEEF8C56E5E" overflow="visible">
            <path d="M 0 0m 0.966 2.163 c 0.048999965 0 0.09799999 0.034999847 0.15399998 0.10500002 c 0.2240001 0.28699994 0.53900003 0.42700005 0.9380001 0.42700005 c 0.5109999 0 0.77 -0.42000008 0.77 -1.2530001 c 0 -0.40600002 -0.06999993 -0.707 -0.20300007 -0.903 c -0.18899989 -0.26600003 -0.44799995 -0.39900005 -0.7839999 -0.39900005 c -0.49 0 -0.882 0.28000003 -1.036 0.64400005 c 0.22400004 0 0.37800008 0.14700001 0.37800008 0.37100005 c 0 0.22399998 -0.14700007 0.3779999 -0.37100005 0.3779999 c -0.231 -0.034999967 -0.37100002 -0.14699996 -0.37100002 -0.39899993 c 0 -0.37100005 0.14699998 -0.679 0.441 -0.924 c 0.27300006 -0.231 0.60200006 -0.35000002 0.973 -0.35000002 c 0.45500016 0 0.8470001 0.154 1.1830001 0.448 c 0.33599997 0.294 0.49699998 0.6650001 0.49699998 1.1060001 c 0 0.42700005 -0.14700007 0.7839999 -0.42700005 1.085 c -0.27999997 0.30100012 -0.6299999 0.44799995 -1.043 0.44799995 c -0.37100005 0 -0.679 -0.10500002 -0.93799996 -0.30799985 v 1.211 c 0.22399998 -0.055999994 0.44099998 -0.08400011 0.64399993 -0.08400011 c 0.27300012 0 0.53199995 0.055999994 0.77700007 0.17500019 c 0.1960001 0.09099984 0.6930001 0.37800002 0.6930001 0.5810001 c 0 0.083999634 -0.042000055 0.12599993 -0.1190002 0.12599993 c -0.385 -0.14700031 -0.74899983 -0.22399998 -1.0849998 -0.22399998 c -0.34300017 0 -0.67900014 0.062999725 -0.9940002 0.18899965 c -0.048999965 0.021000385 -0.07699996 0.035000324 -0.09799993 0.035000324 c -0.07700002 0 -0.11900002 -0.07000017 -0.11900002 -0.21700001 v -2.0370002 c 0 -0.13999987 0.0069999695 -0.23099995 0.13999999 -0.23099995 Z "/>
        </symbol>
    </defs>
</svg>
