<svg class="typst-doc" viewBox="0 0 100.85468503947007 98.76468503937005" width="100.85468503947007pt" height="98.76468503937005pt" xmlns="http://www.w3.org/2000/svg" xmlns:xlink="http://www.w3.org/1999/xlink" xmlns:h5="http://www.w3.org/1999/xhtml">
    <g>
        <g class="typst-group" transform="matrix(1 0 0 1 4 4)">
            <g>
                <g class="typst-group">
                    <g>
                        <path class="typst-shape" fill="none" stroke="#000000" stroke-width="0.48" stroke-linecap="round" stroke-linejoin="miter" stroke-miterlimit="4" transform="matrix(1 0 0 1 18.78000000005001 14.829999999999991)" d="M 0 0h 39.944683 "/>
                        <path class="typst-shape" fill="none" stroke="#000000" stroke-width="0.48" stroke-linecap="round" stroke-linejoin="miter" stroke-miterlimit="4" transform="matrix(1 0 0 1 56.83972438370382 14.830000094488163)" d="M 0 0m 1.8849607 0 c -0.9677618 0.44512072 -1.6671271 1.3227704 -1.8849607 2.3654802 "/>
                        <path class="typst-shape" fill="none" stroke="#000000" stroke-width="0.48" stroke-linecap="round" stroke-linejoin="miter" stroke-miterlimit="4" transform="matrix(1 0 0 1 56.83972438370382 12.464519817832613)" d="M 0 0m 1.8849607 2.3654802 c -0.9677618 -0.44512057 -1.6671271 -1.3227702 -1.8849607 -2.3654802 "/>
                        <path class="typst-shape" fill="none" transform="matrix(1 0 0 1 32.987342472490965 0)" d="M 0 0h 11.77 v 10.83 h -11.77 v -10.83 Z "/>
                        <g class="typst-group">
                            <g>
                                <g class="typst-group" transform="matrix(1 0 0 1 32.9873423937508 -0.00000009448819142333405)">
                                    <g>
                                        <g class="typst-group">
                                            <g>
                                                <g class="typst-group">
                                                    <g>
                                                        <g class="typst-text" transform="matrix(1 0 0 -1 2 8.83)">
                                                            <use xlink:href="#g6DEC9F142915A7C8ED099975ABE1BC2A" x="0" y="0" fill="#dcd7ba" fill-rule="nonzero"/>
                                                        </g>
                                                    </g>
                                                </g>
                                            </g>
                                        </g>
                                    </g>
                                </g>
                            </g>
                        </g>
                        <path class="typst-shape" fill="none" stroke="#000000" stroke-width="0.48" stroke-linecap="round" stroke-linejoin="miter" stroke-miterlimit="4" transform="matrix(1 0 0 1 16.41328259197221 24.245000094488155)" d="M 0 0l 51.108463 53.51612 "/>
                        <path class="typst-shape" fill="none" stroke="#000000" stroke-width="0.48" stroke-linecap="round" stroke-linejoin="miter" stroke-miterlimit="4" transform="matrix(1 0 0 1 64.50920513181238 77.52476458982905)" d="M 0 0m 3.012539 0.23635532 c -0.9902928 -0.39245015 -2.1080165 -0.29207218 -3.012539 0.2705431 "/>
                        <path class="typst-shape" fill="none" stroke="#000000" stroke-width="0.48" stroke-linecap="round" stroke-linejoin="miter" stroke-miterlimit="4" transform="matrix(1 0 0 1 67.33901570086911 74.76421514247426)" d="M 0 0m 0.1827283 2.9969049 c -0.34648085 -1.0072974 -0.19479339 -2.1192205 0.40883476 -2.9969049 "/>
                        <path class="typst-shape" fill="none" transform="matrix(1 0 0 1 44.943141583372935 34.957235622311536)" d="M 0 0h 16.919 v 13.37 h -16.919 v -13.37 Z "/>
                        <g class="typst-group">
                            <g>
                                <g class="typst-group" transform="matrix(1 0 0 1 44.943141473136706 34.957235606563515)">
                                    <g>
                                        <g class="typst-group">
                                            <g>
                                                <g class="typst-group">
                                                    <g>
                                                        <g class="typst-text" transform="matrix(1 0 0 -1 2 8.83)">
                                                            <use xlink:href="#g554E9DD351D25942646E1FFF3FDAD067" x="0" y="0" fill="#dcd7ba" fill-rule="nonzero"/>
                                                        </g>
                                                        <g class="typst-text" transform="matrix(1 0 0 -1 10.109999999999998 11.3)">
                                                            <use xlink:href="#gAA9BE5A126EAEFF25FDFC6B7DC9C5972" x="0" y="0" fill="#dcd7ba" fill-rule="nonzero"/>
                                                        </g>
                                                    </g>
                                                </g>
                                            </g>
                                        </g>
                                    </g>
                                </g>
                            </g>
                        </g>
                        <path class="typst-shape" fill="none" transform="matrix(1 0 0 1 0 11.414999999999978)" d="M 0 0h 12.78 v 6.83 h -12.78 v -6.83 Z "/>
                        <g class="typst-group">
                            <g>
                                <g class="typst-group" transform="matrix(1 0 0 1 -0.00000014168228327742857 11.41499988976376)">
                                    <g>
                                        <g class="typst-group">
                                            <g>
                                                <g class="typst-text" transform="matrix(1 0 0 -1 0.000000000049999829298746954 6.83)">
                                                    <use xlink:href="#gFFA0AE558D275D2E41B728837A5EECAB" x="0" y="0" fill="#dcd7ba" fill-rule="nonzero"/>
                                                    <use xlink:href="#gECEB1837B31FC303DF27674E25C0A16A" x="5.5600000000000005" y="0" fill="#dcd7ba" fill-rule="nonzero"/>
                                                </g>
                                            </g>
                                        </g>
                                    </g>
                                </g>
                            </g>
                        </g>
                        <path class="typst-shape" fill="none" transform="matrix(1 0 0 1 64.96468503937007 11.414999999999978)" d="M 0 0h 27.89 v 6.83 h -27.89 v -6.83 Z "/>
                        <g class="typst-group">
                            <g>
                                <g class="typst-group" transform="matrix(1 0 0 1 64.96468492918385 11.41499988976376)">
                                    <g>
                                        <g class="typst-group">
                                            <g>
                                                <g class="typst-text" transform="matrix(1 0 0 -1 0.00000000005000072447069752 6.83)">
                                                    <use xlink:href="#g710988D64361FF4669AAAC18596E25CC" x="0" y="0" fill="#dcd7ba" fill-rule="nonzero"/>
                                                    <use xlink:href="#g5B56189F4B61D0411A937681F49C913B" x="7.8500000000000005" y="0" fill="#dcd7ba" fill-rule="nonzero"/>
                                                    <use xlink:href="#g473161271415EA1600AF60738E54DE7C" x="11.770000000000001" y="0" fill="#dcd7ba" fill-rule="nonzero"/>
                                                    <use xlink:href="#g5CEA6C9A4F8694ADA228E39F60061619" x="16.770000000000003" y="0" fill="#dcd7ba" fill-rule="nonzero"/>
                                                    <use xlink:href="#gCB65EFC98C101DD54FA0DEFB2CFE629" x="22.330000000000005" y="0" fill="#dcd7ba" fill-rule="nonzero"/>
                                                </g>
                                            </g>
                                        </g>
                                    </g>
                                </g>
                            </g>
                        </g>
                        <path class="typst-shape" fill="none" transform="matrix(1 0 0 1 68.77468503937007 83.93468503937005)" d="M 0 0h 20.27 v 6.83 h -20.27 v -6.83 Z "/>
                        <g class="typst-group">
                            <g>
                                <g class="typst-group" transform="matrix(1 0 0 1 68.77468497642795 83.93468492913384)">
                                    <g>
                                        <g class="typst-group">
                                            <g>
                                                <g class="typst-text" transform="matrix(1 0 0 -1 0.000000000050002514814598645 6.83)">
                                                    <use xlink:href="#g81ACF0C6B59D2D7E4828CEBD4FE619EE" x="0" y="0" fill="#dcd7ba" fill-rule="nonzero"/>
                                                    <use xlink:href="#g2CFBF355A086744D66EAE850A6E5A879" x="7.5" y="0" fill="#dcd7ba" fill-rule="nonzero"/>
                                                    <use xlink:href="#gBC8988F2A5752C2A5F05CF18782EECF" x="11.940000000000001" y="0" fill="#dcd7ba" fill-rule="nonzero"/>
                                                    <use xlink:href="#gD18D2E406A3A2DB79B9B9EAA980B1DD5" x="16.380000000000003" y="0" fill="#dcd7ba" fill-rule="nonzero"/>
                                                </g>
                                            </g>
                                        </g>
                                    </g>
                                </g>
                            </g>
                        </g>
                    </g>
                </g>
            </g>
        </g>
    </g>
    <defs id="glyph">
        <symbol id="g6DEC9F142915A7C8ED099975ABE1BC2A" overflow="visible">
            <path d="M 0 0m 1.99 6.56 c 0 -0.099999905 0.109999895 -0.1500001 0.31999993 -0.1500001 c 0.4000001 0 0.5999999 -0.03999996 0.5999999 -0.13000011 c 0 -0.029999733 -0.01999998 -0.099999905 -0.049999952 -0.23000002 l -1.3 -5.2299995 c -0.059999943 -0.22000003 -0.15999997 -0.35 -0.29999995 -0.4 c -0.07000005 -0.02000001 -0.25 -0.030000001 -0.56 -0.030000001 c -0.22 0 -0.32 -0.01999998 -0.32 -0.22999999 c 0 -0.11 0.060000002 -0.16 0.19 -0.16 l 1.3 0.03 l 1.4799999 -0.03 c 0.16000009 0 0.24000001 0.08 0.24000001 0.22999999 c 0 0.16999999 -0.109999895 0.16 -0.3699999 0.16 c -0.44000006 0 -0.69000006 0.02000001 -0.75 0.06999999 c -0.029999971 0.01000002 -0.0400002 0.050000012 -0.0400002 0.100000024 l 0.6400001 2.65 h 0.93000007 c 0.46000004 0 0.77999973 -0.02000022 0.77999973 -0.4000001 c 0 -0.13000011 -0.01999998 -0.28999996 -0.069999695 -0.48000002 c -0.010000229 -0.029999971 -0.01999998 -0.06999993 -0.03000021 -0.109999895 c 0 -0.11000013 0.05000019 -0.16000009 0.15999985 -0.16000009 c 0.05000019 0.00999999 0.12000036 0.07999992 0.19000006 0.23000002 l 0.53999996 2.15 c 0.01999998 0.07999992 0.03000021 0.13999987 0.03000021 0.17000008 c -0.03000021 0.089999676 -0.09000015 0.13999987 -0.15999985 0.13999987 c -0.0800004 0 -0.14000034 -0.07999992 -0.1800003 -0.23000002 c -0.099999905 -0.3800001 -0.23999977 -0.6200001 -0.4000001 -0.74 c -0.15999985 -0.120000124 -0.43999958 -0.18000007 -0.8399997 -0.18000007 h -0.85000014 l 0.6200001 2.46 c 0.07999992 0.33999968 0.07999992 0.3499999 0.5 0.3499999 h 1.2999997 c 0.97000027 0 1.4100003 -0.1500001 1.4100003 -1.04 c 0 -0.19999981 -0.010000229 -0.3800001 -0.03000021 -0.5300002 c -0.009999752 -0.10999966 -0.01999998 -0.1699996 -0.01999998 -0.17999983 c 0 -0.11000013 0.05000019 -0.15999985 0.1500001 -0.15999985 c 0.099999905 0 0.15999985 0.089999676 0.17999983 0.27999973 l 0.20000029 1.71 c 0.029999733 0.2800002 -0.03999996 0.30999994 -0.30999994 0.30999994 h -4.84 c -0.23000002 0 -0.3399999 -0.009999752 -0.3399999 -0.23999977 Z "/>
        </symbol>
        <symbol id="g554E9DD351D25942646E1FFF3FDAD067" overflow="visible">
            <path d="M 0 0m 8.809999 6.68 c 0 0.099999905 -0.059999466 0.1500001 -0.17999935 0.1500001 l -1.2700005 -0.03000021 l -1.27 0.03000021 c -0.15999985 0 -0.23000002 -0.09000015 -0.23000002 -0.24000025 c 0 -0.069999695 0.03000021 -0.119999886 0.0800004 -0.12999964 c 0.099999905 -0.010000229 0.17999983 -0.01999998 0.23000002 -0.01999998 c 0.30999994 -0.010000229 0.47999954 -0.03000021 0.52999973 -0.04000044 c 0.05000019 -0.009999752 0.07999992 -0.03999996 0.07999992 -0.089999676 c -0.009999752 -0.03000021 -0.01999998 -0.09000015 -0.03999996 -0.1800003 l -0.5899997 -2.3799996 h -2.94 l 0.5799999 2.27 c 0.049999952 0.21000004 0.13999987 0.33999968 0.26999998 0.38999987 c 0.07000017 0.01999998 0.23999977 0.03000021 0.52 0.03000021 c 0.26999998 0 0.3800001 0 0.3800001 0.23999977 c 0 0.099999905 -0.059999943 0.1500001 -0.1800003 0.1500001 l -1.2699997 -0.03000021 l -1.28 0.03000021 c -0.16000009 0 -0.23000002 -0.09000015 -0.23000002 -0.24000025 c 0 -0.069999695 0.029999971 -0.119999886 0.089999914 -0.12999964 c 0.10000014 -0.010000229 0.18000007 -0.01999998 0.23000002 -0.01999998 c 0.30999994 -0.010000229 0.49 -0.03000021 0.53999996 -0.04000044 c 0.049999952 -0.009999752 0.06999993 -0.03999996 0.06999993 -0.089999676 c 0 -0.01999998 -0.00999999 -0.07999992 -0.03999996 -0.1800003 l -1.3299999 -5.3099995 c -0.049999952 -0.22000003 -0.14999998 -0.35 -0.29999995 -0.4 c -0.07000005 -0.02000001 -0.25 -0.030000001 -0.56 -0.030000001 c -0.22 0 -0.31 -0.01999998 -0.31 -0.24 c 0 -0.099999994 0.060000002 -0.14999999 0.18 -0.14999999 l 1.26 0.03 l 0.6300001 -0.01 c 0.109999895 0 0.53 -0.02 0.63999987 -0.02 c 0.16000009 0 0.24000001 0.08 0.24000001 0.24 c 0 0.10000001 -0.109999895 0.14999999 -0.31999993 0.14999999 c -0.4000001 0 -0.60000014 0.03999999 -0.60000014 0.13 c 0 0 0.00999999 0.030000031 0.03000021 0.16000003 l 0.66999984 2.6799998 h 2.9299998 l -0.6699996 -2.6799998 c -0.03000021 -0.15000004 -0.1500001 -0.25000003 -0.35000038 -0.28000003 c -0.049999714 -0.00999999 -0.21999979 -0.00999999 -0.50999975 -0.00999999 c -0.19000006 0 -0.2800002 -0.07999998 -0.2800002 -0.24 c 0 -0.099999994 0.059999943 -0.14999999 0.1800003 -0.14999999 l 1.2599998 0.03 l 0.6300001 -0.01 c 0.11000013 0 0.52 -0.02 0.6500001 -0.02 c 0.15999985 0 0.23999977 0.08 0.23999977 0.24 c 0 0.10000001 -0.11000013 0.14999999 -0.32000017 0.14999999 c -0.40999985 0 -0.60999966 0.03999999 -0.60999966 0.13 c 0 0 0.009999752 0.030000031 0.029999733 0.16000003 l 1.3400002 5.34 c 0.05000019 0.21000004 0.13999987 0.33999968 0.26999998 0.38999987 c 0.059999943 0.01999998 0.22999954 0.03000021 0.5199995 0.03000021 c 0.26000023 0 0.3800001 0 0.3800001 0.23999977 Z "/>
        </symbol>
        <symbol id="gAA9BE5A126EAEFF25FDFC6B7DC9C5972" overflow="visible">
            <path d="M 0 0m 3.969 2.5970001 c 0 0.30799985 -0.2520001 0.5109999 -0.55999994 0.5109999 c -0.31500006 0 -0.6860001 -0.20300007 -1.1200001 -0.61599994 c -0.31499994 -0.30100012 -0.56700003 -0.4970001 -0.742 -0.5810001 l 0.67200005 2.702 c 0.0069999695 0.014000416 0.013999939 0.056000233 0.027999878 0.119000435 c 0 0.083999634 -0.049000025 0.12599993 -0.13999987 0.12599993 l -0.8820001 -0.07000017 c -0.11899996 -0.0069999695 -0.17499995 -0.07000017 -0.17499995 -0.18900013 c 0 -0.076999664 0.06999993 -0.11899996 0.20299995 -0.11899996 c 0.11900008 0 0.30799997 0 0.30799997 -0.076999664 c 0 -0.028000355 -0.0069999695 -0.07700014 -0.027999997 -0.14700031 c -0.33599997 -1.3369999 -0.658 -2.688 -1.0009999 -4.018 c -0.0069999695 -0.027999997 -0.0069999695 -0.048999995 -0.0069999695 -0.055999994 c 0 -0.16800001 0.08399999 -0.252 0.259 -0.252 c 0.17500001 0 0.28699994 0.105000004 0.34300005 0.308 c 0.11199999 0.42700002 0.273 1.064 0.33599997 1.323 c 0.553 -0.062999964 0.83299994 -0.23799992 0.83299994 -0.5389999 c 0 -0.06300002 -0.041999817 -0.28700006 -0.041999817 -0.35000002 c 0 -0.43400005 0.329 -0.74200004 0.7559998 -0.74200004 c 0.2520001 0 0.46200013 0.126 0.62300014 0.378 c 0.14700007 0.23100004 0.23799992 0.46200004 0.27999997 0.707 c 0 0.07700002 -0.049000025 0.11900008 -0.1400001 0.11900008 c -0.041999817 0 -0.06999993 -0.0069999695 -0.09099984 -0.021000028 c -0.035000086 -0.062999964 -0.062999964 -0.11900002 -0.06999993 -0.16799998 c -0.1400001 -0.51100004 -0.3360002 -0.763 -0.5810001 -0.763 c -0.1400001 0 -0.21000004 0.11199999 -0.21000004 0.32900003 c 0 0.08399999 0.013999939 0.18199998 0.035000086 0.301 c 0.020999908 0.07699996 0.034999847 0.14700001 0.034999847 0.22399998 c 0 0.301 -0.15400004 0.51100004 -0.46899986 0.61600006 c -0.1960001 0.06999993 -0.3920002 0.11899996 -0.58800006 0.13999999 c 0.1329999 0.09099996 0.30099988 0.23099995 0.50399995 0.4130001 c 0.329 0.2939999 0.6370001 0.651 1.0640001 0.651 c 0.0769999 0 0.1329999 -0.014000177 0.17499995 -0.042000055 c -0.21700001 -0.055999994 -0.329 -0.18900013 -0.329 -0.40600014 c 0 -0.16799998 0.1329999 -0.28699994 0.30099988 -0.28699994 c 0.2520001 0 0.42000008 0.22399998 0.42000008 0.47600007 Z "/>
        </symbol>
        <symbol id="gFFA0AE558D275D2E41B728837A5EECAB" overflow="visible">
            <path d="M 0 0m 2.52 6.69 c 1.0699999 0 1.6999998 -0.6800003 1.8800001 -2.0300002 c 0.009999752 -0.099999905 0.069999695 -0.1500001 0.15999985 -0.1500001 c 0.11000013 0 0.15999985 0.09000015 0.15999985 0.26999998 v 1.9900002 c 0 0.19000006 -0.049999714 0.27999973 -0.13999987 0.27999973 c -0.059999943 0 -0.119999886 -0.049999714 -0.17999983 -0.1500001 l -0.32000017 -0.52 c -0.44000006 0.42000008 -0.8399999 0.6700001 -1.5699999 0.6700001 c -1.09 0 -1.95 -0.87999964 -1.95 -1.96 c 0 -0.9199996 0.59999996 -1.5999997 1.31 -1.8499997 l 1.2999998 -0.32000017 c 0.6700001 -0.16999984 1.1099999 -0.6299999 1.1099999 -1.3799999 c 0 -0.75 -0.51999974 -1.37 -1.2699997 -1.37 c -1.3100001 0 -2.08 0.73999995 -2.13 2.01 c 0 0.089999914 -0.050000012 0.13999987 -0.15000004 0.13999987 c -0.109999955 0 -0.16999996 -0.089999914 -0.16999996 -0.27999997 v -1.98 c 0 -0.19 0.050000012 -0.28 0.14999998 -0.28 c 0.060000002 0 0.120000005 0.049999997 0.18 0.15 l 0.31999993 0.52 c 0.43000007 -0.45 1.0300001 -0.66999996 1.8100001 -0.66999996 c 0.56999993 0 1.0499997 0.21 1.4200001 0.62 c 0.3699999 0.41000003 0.5499997 0.9 0.5499997 1.48 c 0 0.4699999 -0.13999987 0.9 -0.40999985 1.2899998 c -0.26999998 0.3900001 -0.6400001 0.6300001 -1.0899999 0.74 l -1.26 0.30999994 c -0.5300001 0.119999886 -0.96000004 0.59000015 -0.96000004 1.2200003 c 0 0.6999998 0.54999995 1.25 1.25 1.25 Z "/>
        </symbol>
        <symbol id="gECEB1837B31FC303DF27674E25C0A16A" overflow="visible">
            <path d="M 0 0m 6.6499996 4.43 v 2.3400002 c 0 0.19000006 -0.049999714 0.27999973 -0.14999962 0.27999973 c -0.07000017 0 -0.13000011 -0.049999714 -0.19000006 -0.13999987 l -0.47000027 -0.69000006 c -0.2999997 0.30999994 -0.6199999 0.5300002 -0.9699998 0.6700001 c -0.25999975 0.11000013 -0.53999996 0.15999985 -0.84000015 0.15999985 c -0.9699998 0 -1.7999997 -0.3499999 -2.4699998 -1.0699997 c -0.66999996 -0.72000027 -0.99999994 -1.5700002 -0.99999994 -2.5600002 c 0 -0.99 0.32999998 -1.8399999 0.98999995 -2.5499997 c 0.6700001 -0.73 1.5 -1.09 2.4799998 -1.09 c 0.71000004 0 1.3299999 0.25 1.8499999 0.75 c 0.52 0.5 0.77 1.1 0.77 1.81 c 0 0.1400001 -0.059999943 0.21000004 -0.1699996 0.21000004 c -0.10000038 0 -0.1500001 -0.03999996 -0.1500001 -0.13000011 c 0 -0.00999999 0 -0.029999971 -0.010000229 -0.059999943 c -0.059999943 -1.1999999 -0.9199996 -2.1899998 -2.1699996 -2.1899998 c -0.37000012 0 -0.74000025 0.09999998 -1.1300001 0.3 c -0.9200001 0.49999997 -1.36 1.4599999 -1.36 2.9399998 c 0 1.4000001 0.4899999 2.48 1.36 2.9499998 c 0.38999987 0.20000029 0.76 0.3000002 1.1199999 0.3000002 c 1.2400002 0 1.9499998 -1.1300001 2.12 -2.31 c 0.010000229 -0.13000011 0.07999992 -0.19999981 0.19000006 -0.19999981 c 0.19999981 0 0.19999981 0.07999992 0.19999981 0.27999973 Z "/>
        </symbol>
        <symbol id="g710988D64361FF4669AAAC18596E25CC" overflow="visible">
            <path d="M 0 0m 6.67 4.43 v 2.3400002 c 0 0.19000006 -0.05000019 0.27999973 -0.1500001 0.27999973 c -0.07000017 0 -0.13000011 -0.049999714 -0.19000006 -0.13999987 l -0.47000027 -0.69000006 c -0.17999983 0.17999983 -0.38999987 0.3499999 -0.6199999 0.5100002 c -0.32999992 0.21000004 -0.73 0.3199997 -1.1999998 0.3199997 c -0.98 0 -1.81 -0.3499999 -2.48 -1.0699997 c -0.66999996 -0.72000027 -0.99999994 -1.5700002 -0.99999994 -2.5600002 c 0 -0.99 0.33999997 -1.8399999 1.01 -2.56 c 0.6700001 -0.71999997 1.5 -1.0799999 2.49 -1.0799999 c 0.88999987 0 1.5099998 0.26999998 1.8499999 0.80999994 c 0.07999992 -0.13 0.48000002 -0.58 0.6300001 -0.58 c 0.089999676 0 0.13000011 0.089999996 0.13000011 0.26 v 1.73 c 0 0.18000007 0.029999733 0.28999996 0.089999676 0.32999992 c 0.059999943 0.03999996 0.26000023 0.059999943 0.59000015 0.059999943 v 0.3900001 l -1.25 -0.029999971 c -0.6300001 -0.01999998 -1.1799998 -0.00999999 -1.6300001 0.029999971 v -0.3900001 h 0.36000013 c 0.40999985 0 0.65999985 -0.029999971 0.75 -0.07999992 c 0.09000015 -0.049999952 0.13000011 -0.17000008 0.13000011 -0.35000002 v -0.64 c 0 -0.48999995 -0.22000027 -0.81999993 -0.6500001 -0.9799999 c -0.32000017 -0.110000014 -0.5999999 -0.17 -0.84000015 -0.17 c -0.38999987 0 -0.78999996 0.09999998 -1.1799998 0.31 c -0.94000006 0.48999998 -1.38 1.4499999 -1.38 2.9399998 c 0 1.4100001 0.4899999 2.47 1.37 2.9399998 c 0.38999987 0.20000029 0.76 0.3000002 1.1299999 0.3000002 c 1.23 0 1.9499998 -1.1300001 2.1100001 -2.31 c 0.01999998 -0.13000011 0.089999676 -0.19999981 0.19999981 -0.19999981 c 0.20000029 0 0.20000029 0.07999992 0.20000029 0.27999973 Z "/>
        </symbol>
        <symbol id="g5B56189F4B61D0411A937681F49C913B" overflow="visible">
            <path d="M 0 0m 3.6399999 3.78 c 0 0.3900001 -0.3699999 0.6400001 -0.76 0.6400001 c -0.51 0 -0.9 -0.3000002 -1.16 -0.9100001 v 0.9100001 l -1.4399999 -0.11000013 v -0.3800001 c 0.35 0 0.55999994 -0.029999971 0.64 -0.089999914 c 0.08000004 -0.059999943 0.120000005 -0.19000006 0.120000005 -0.42000008 v -2.6299999 c 0 -0.19 -0.029999971 -0.30999997 -0.099999964 -0.34999996 c -0.06999999 -0.04000002 -0.29000002 -0.060000002 -0.65999997 -0.060000002 v -0.38 l 1.15 0.03 c 0.41999996 0.01 0.85 0 1.2800001 -0.03 v 0.38 h -0.24000001 c -0.33000016 0 -0.5400001 0.030000001 -0.61 0.07999998 c -0.07000005 0.050000012 -0.100000024 0.17000002 -0.100000024 0.35000002 v 1.51 c 0 0.43000007 0.07999992 0.81999993 0.23000002 1.1500001 c 0.20000005 0.42999983 0.49 0.64999986 0.8799999 0.6600001 c -0.099999905 -0.10000038 -0.14999986 -0.22000027 -0.14999986 -0.36000013 c 0 -0.30999994 0.14999986 -0.46000004 0.4599998 -0.46000004 c 0.26999998 0 0.46000004 0.21000004 0.46000004 0.47000003 Z "/>
        </symbol>
        <symbol id="g473161271415EA1600AF60738E54DE7C" overflow="visible">
            <path d="M 0 0m 4.83 0.90999997 v 0.59000003 h -0.32000017 v -0.59000003 c 0 -0.39 -0.10999966 -0.59 -0.3199997 -0.59 c -0.20000005 0 -0.32000017 0.25 -0.32000017 0.45 v 1.97 c 0 0.3499999 -0.03999996 0.6099999 -0.109999895 0.78999996 c -0.24000001 0.5899999 -0.93000007 0.95000005 -1.6300001 0.95000005 c -0.76999986 0 -1.53 -0.4300003 -1.53 -1.1500001 c 0 -0.32999992 0.17000002 -0.5 0.50000006 -0.5 c 0.32999992 0 0.4899999 0.16000009 0.4899999 0.49 c 0 0.28999996 -0.14999998 0.46000004 -0.45999992 0.49 c 0.22000003 0.25 0.54999995 0.3800001 0.9799999 0.3800001 c 0.6200001 0 1 -0.5700002 1 -1.22 v -0.33000016 c -0.78 -0.049999952 -1.3699999 -0.16999984 -1.78 -0.3599999 c -0.66999996 -0.31000006 -1.01 -0.74 -1.01 -1.31 c 0 -0.26 0.099999994 -0.48 0.29000002 -0.65 c 0.32 -0.29 0.76 -0.43 1.3199999 -0.43 c 0.59000003 0 1.0099999 0.25 1.2699999 0.76 c 0.07000017 -0.38 0.35000014 -0.71 0.7800002 -0.71 c 0.52999973 0 0.8499999 0.42 0.8499999 0.96999997 Z m -2.83 -0.72999996 c -0.46000004 0 -0.84000003 0.33999997 -0.84000003 0.79999995 c 0 0.93 0.9699999 1.3299999 1.9499999 1.3799999 v -0.9499999 c 0 -0.66999996 -0.44000006 -1.23 -1.1099999 -1.23 Z "/>
        </symbol>
        <symbol id="g5CEA6C9A4F8694ADA228E39F60061619" overflow="visible">
            <path d="M 0 0m 2.98 -0.13 c 0.6199999 0 1.1500001 0.22 1.5799999 0.66999996 c 0.42999983 0.45 0.6500001 0.98 0.6500001 1.6099999 c 0 0.61000013 -0.20000029 1.1300001 -0.59000015 1.5700002 c -0.40999985 0.47000003 -0.9100001 0.70000005 -1.51 0.70000005 c -0.51 0 -0.95000005 -0.20000029 -1.3299999 -0.59000015 v 0.59000015 l -1.5 -0.11000013 v -0.3800001 c 0.36999997 0 0.59000003 -0.01999998 0.65999997 -0.06999993 c 0.06999999 -0.049999952 0.109999955 -0.18000007 0.109999955 -0.38999987 v -4.62 c 0 -0.18999994 -0.03999996 -0.30999994 -0.109999955 -0.35000002 c -0.06999999 -0.03999996 -0.29000002 -0.049999952 -0.65999997 -0.049999952 v -0.39 l 1.14 0.029999971 l 1.15 -0.029999971 v 0.39 c -0.3699999 0 -0.5799999 0.00999999 -0.65 0.049999952 c -0.07000005 0.04000008 -0.110000014 0.16000009 -0.110000014 0.35000002 v 1.5899999 c 0.22000003 -0.31 0.6500001 -0.57 1.1700001 -0.57 Z m 0.059999943 4.22 c 0.40999985 0 0.73 -0.22999978 0.98 -0.6899998 c 0.19000006 -0.38999987 0.28999996 -0.79999995 0.28999996 -1.25 c 0 -0.4699999 -0.11000013 -0.89999986 -0.32999992 -1.29 c -0.26 -0.46999997 -0.61000013 -0.6999999 -1.0400002 -0.6999999 c -0.41999984 0 -0.74999976 0.19999999 -0.9999999 0.59000003 c -0.09000003 0.13 -0.13 0.26 -0.13 0.39 v 2.19 c 0.28999996 0.51 0.70000005 0.75999975 1.23 0.75999975 Z "/>
        </symbol>
        <symbol id="gCB65EFC98C101DD54FA0DEFB2CFE629" overflow="visible">
            <path d="M 0 0m 3.1399999 4.15 c 0.45000005 0 0.68000007 -0.35000014 0.68000007 -1.0600002 v -2.3 c 0 -0.19 -0.029999971 -0.30999997 -0.099999905 -0.34999996 c -0.07000017 -0.04000002 -0.2900002 -0.050000012 -0.6600001 -0.050000012 v -0.39 l 1.1500001 0.03 l 1.1399999 -0.03 v 0.39 c -0.32000017 0 -0.5300002 0.00999999 -0.6300001 0.03999999 c -0.099999905 0.030000001 -0.13999987 0.099999994 -0.13999987 0.21000001 v 1.89 c 0 0.48000002 -0.010000229 0.80999994 -0.03999996 1 c -0.099999905 0.6099999 -0.54999995 0.91999984 -1.3400002 0.91999984 c -0.6099999 0 -1.0699999 -0.27999973 -1.3799999 -0.8399999 v 3.3300002 l -1.5 -0.11000013 v -0.3800001 c 0.36 0 0.58 -0.029999733 0.65999997 -0.09000015 c 0.07999998 -0.059999943 0.110000074 -0.19999981 0.110000074 -0.42999983 v -5.14 c 0 -0.19 -0.04000008 -0.30999997 -0.110000074 -0.34999996 c -0.06999999 -0.04000002 -0.28999996 -0.050000012 -0.65999997 -0.050000012 v -0.39 l 1.1499999 0.03 l 1.14 -0.03 v 0.39 c -0.3699999 0 -0.5799999 0.00999999 -0.65 0.050000012 c -0.06999993 0.03999999 -0.110000014 0.15999997 -0.110000014 0.34999996 v 1.8199999 c 0 0.80999994 0.51 1.5400002 1.29 1.5400002 Z "/>
        </symbol>
        <symbol id="g81ACF0C6B59D2D7E4828CEBD4FE619EE" overflow="visible">
            <path d="M 0 0m 6.22 5.81 c 0.15999985 0.40999985 0.52 0.6199999 1.0799999 0.6300001 v 0.38999987 c -0.42999983 -0.03000021 -0.75999975 -0.03999996 -1 -0.03000021 l -1.1699996 0.03000021 v -0.3800001 c 0.48999977 -0.009999752 0.72999954 -0.17000008 0.72999954 -0.46000004 c 0 -0.03999996 -0.01999998 -0.099999905 -0.049999714 -0.17999983 l -1.77 -4.67 l -1.8599999 4.89 c -0.03000021 0.099999905 -0.05000019 0.16000032 -0.05000019 0.17000008 c 0 0.15999985 0.26999998 0.24000025 0.80999994 0.24000025 v 0.38999987 c -0.41999984 -0.03000021 -0.89999986 -0.03999996 -1.4499998 -0.03000021 l -1.3 0.03000021 v -0.38999987 c 0.37 0 0.60999995 -0.01999998 0.71999997 -0.05000019 c 0.110000014 -0.03000021 0.19000006 -0.13000011 0.25 -0.3000002 l 2.3000002 -6.0699997 c 0.059999943 -0.16 0.14999986 -0.24 0.27999997 -0.24 c 0.12999988 0 0.21999979 0.07000001 0.26999974 0.21 Z "/>
        </symbol>
        <symbol id="g2CFBF355A086744D66EAE850A6E5A879" overflow="visible">
            <path d="M 0 0m 4.15 2.51 c 0 1.1499999 -0.6700001 1.97 -1.7900002 1.97 c -0.5999999 0 -1.0999999 -0.23000002 -1.51 -0.70000005 c -0.37999997 -0.44000006 -0.56999993 -0.97 -0.56999993 -1.5799999 c 0 -0.6300001 0.20999998 -1.1600001 0.63 -1.6200001 c 0.41999996 -0.45999998 0.93999994 -0.69 1.5600001 -0.69 c 0.56999993 0 1.01 0.19999999 1.31 0.59 c 0.24999976 0.33 0.37000012 0.56999993 0.37000012 0.7299999 c 0 0.100000024 -0.06000042 0.1500001 -0.17000008 0.1500001 c -0.08000016 0 -0.13000011 -0.05000007 -0.16000009 -0.16000009 c -0.22000003 -0.65999997 -0.6500001 -0.98999995 -1.29 -0.98999995 c -0.45000005 0 -0.79999995 0.21 -1.07 0.64 c -0.18999994 0.31 -0.27999997 0.78000003 -0.28999996 1.4200001 h 2.6999998 c 0.21999979 0 0.2800002 0.01999998 0.2800002 0.24000001 Z m -0.8900001 0.98 c 0.109999895 -0.33000016 0.15999985 -0.6500001 0.15999985 -0.94000006 h -2.2399998 c 0.029999971 0.6600001 0.20000005 1.1099999 0.5 1.3399999 c 0.25 0.19999981 0.4699999 0.3000002 0.67999995 0.3000002 c 0.45000005 0 0.75 -0.23000026 0.9000001 -0.70000005 Z "/>
        </symbol>
        <symbol id="gBC8988F2A5752C2A5F05CF18782EECF" overflow="visible">
            <path d="M 0 0m 2.51 4.16 c 0.41999984 0 0.74 -0.099999905 0.96000004 -0.29999995 c -0.24000001 -0.029999971 -0.4100001 -0.25 -0.4100001 -0.48000002 c 0 -0.32999992 0.16000009 -0.49 0.49 -0.49 c 0.32999992 0 0.49 0.17000008 0.49 0.5 c 0 0.71000004 -0.77 1.0900002 -1.54 1.0900002 c -0.62 0 -1.13 -0.22000027 -1.54 -0.68000007 c -0.40999997 -0.46000004 -0.62 -1.01 -0.62 -1.6400001 c 0 -0.6099999 0.21000001 -1.1499999 0.62 -1.5999999 c 0.41000003 -0.45 0.91 -0.67 1.52 -0.67 c 0.5 0 0.88999987 0.14 1.1699998 0.43 c 0.23000002 0.23000002 0.37999988 0.45999998 0.46000028 0.7 c 0.029999733 0.09000003 0.03999996 0.14999998 0.03999996 0.18999994 c 0 0.09000003 -0.06000042 0.13 -0.17000008 0.13 c -0.08000016 0 -0.13000011 -0.03999996 -0.16000009 -0.119999886 c -0.21000004 -0.67 -0.6200001 -1.01 -1.25 -1.01 c -0.28999996 0 -0.56999993 0.13000001 -0.85 0.40000004 c -0.32999992 0.30999994 -0.4899999 0.8299999 -0.4899999 1.57 c 0 0.99999976 0.38 1.9799998 1.28 1.9799998 Z "/>
        </symbol>
        <symbol id="gD18D2E406A3A2DB79B9B9EAA980B1DD5" overflow="visible">
            <path d="M 0 0m 3.32 1.26 v 0.6 h -0.31999993 v -0.58000004 c 0 -0.5 -0.18000007 -1.06 -0.6200001 -1.06 c -0.40999997 0 -0.6099999 0.34 -0.6099999 1.02 v 2.7099998 h 1.3899999 v 0.3800001 h -1.3899999 v 1.8200002 h -0.32000005 c -0.00999999 -0.3300004 -0.03999996 -0.62000036 -0.110000014 -0.8800001 c -0.16999996 -0.65999985 -0.55999994 -1 -1.1499999 -1.0300002 v -0.28999996 h 0.83 v -2.6899998 c 0 -0.59000003 0.17999995 -0.97 0.53 -1.16 c 0.26999998 -0.13999999 0.52 -0.21 0.77 -0.21 c 0.6600001 0 1 0.66 1 1.37 Z "/>
        </symbol>
    </defs>
</svg>
