<svg class="typst-doc" viewBox="0 0 154.26771653543307 55.05511811023623" width="154.26771653543307pt" height="55.05511811023623pt" xmlns="http://www.w3.org/2000/svg" xmlns:xlink="http://www.w3.org/1999/xlink" xmlns:h5="http://www.w3.org/1999/xhtml">
    <g>
        <g class="typst-group" transform="matrix(1 0 0 1 4 4)">
            <g>
                <path class="typst-shape" fill="#e6f0ff" fill-rule="nonzero" stroke="#dcd7ba" stroke-width="1" stroke-linecap="butt" stroke-linejoin="miter" stroke-miterlimit="4" transform="matrix(1 0 0 1 2.267716535433071 2.2677165354330726)" d="M 0 0m 0 42.519684 c 0 0 51.02362 0 51.02362 0 c 0 0 -25.51181 -42.519684 -25.51181 -42.519684 c 0 0 0 0 0 0 c 0 0 -25.51181 42.519684 -25.51181 42.519684 c 0 0 0 0 0 0 Z "/>
                <path class="typst-shape" fill="#99c2ff" fill-rule="nonzero" stroke="#dcd7ba" stroke-width="1" stroke-linecap="butt" stroke-linejoin="miter" stroke-miterlimit="4" transform="matrix(1 0 0 1 2.267716535433071 29.19685039370079)" d="M 0 0m 0 15.590551 c 0 0 51.02362 0 51.02362 0 c 0 0 -25.51181 -15.590551 -25.51181 -15.590551 c 0 0 0 0 0 0 c 0 0 -25.51181 15.590551 -25.51181 15.590551 c 0 0 0 0 0 0 Z "/>
                <path class="typst-shape" fill="#b3d1ff" fill-rule="nonzero" stroke="#dcd7ba" stroke-width="1" stroke-linecap="butt" stroke-linejoin="miter" stroke-miterlimit="4" transform="matrix(1 0 0 1 27.77952755905512 2.2677165354330726)" d="M 0 0m 25.51181 42.519684 c 0 0 -25.51181 -42.519684 -25.51181 -42.519684 c 0 0 0 26.929134 0 26.929134 c 0 0 0 0 0 0 c 0 0 25.51181 15.590549 25.51181 15.590549 c 0 0 0 0 0 0 Z "/>
                <path class="typst-shape" fill="#cce5ff" fill-rule="nonzero" stroke="#dcd7ba" stroke-width="1" stroke-linecap="butt" stroke-linejoin="miter" stroke-miterlimit="4" transform="matrix(1 0 0 1 2.267716535433071 2.2677165354330726)" d="M 0 0m 0 42.519684 c 0 0 25.51181 -42.519684 25.51181 -42.519684 c 0 0 0 26.929134 0 26.929134 c 0 0 0 0 0 0 c 0 0 -25.51181 15.590549 -25.51181 15.590549 c 0 0 0 0 0 0 Z "/>
                <path class="typst-shape" fill="#d4edda" fill-rule="nonzero" stroke="#dcd7ba" stroke-width="1" stroke-linecap="butt" stroke-linejoin="miter" stroke-miterlimit="4" transform="matrix(1 0 0 1 27.77952755905512 2.2677165354330726)" d="M 0 0m 25.51181 42.519684 c 0 0 -25.51181 -42.519684 -25.51181 -42.519684 c 0 0 48.188976 2.8346457 48.188976 2.8346457 c 0 0 0 0 0 0 c 0 0 -22.677166 39.68504 -22.677166 39.68504 c 0 0 0 0 0 0 Z "/>
                <path class="typst-shape" fill="#fff3cd" fill-rule="nonzero" stroke="#dcd7ba" stroke-width="1" stroke-linecap="butt" stroke-linejoin="miter" stroke-miterlimit="4" transform="matrix(1 0 0 1 53.29133858267716 5.102362204724414)" d="M 0 0m 0 39.68504 c 0 0 22.677166 -39.68504 22.677166 -39.68504 c 0 0 22.677166 39.68504 22.677166 39.68504 c 0 0 0 0 0 0 c 0 0 -45.354332 0 -45.354332 0 c 0 0 0 0 0 0 Z "/>
                <path class="typst-shape" fill="none" stroke="#dcd7ba" stroke-width="1" stroke-linecap="butt" stroke-linejoin="miter" stroke-miterlimit="4" transform="matrix(1 0 0 1 75.96850393700787 5.102362204724414)" d="M 0 0c 0 0 45.354332 5.6692915 45.354332 5.6692915 "/>
                <path class="typst-shape" fill="none" stroke="#dcd7ba" stroke-width="1" stroke-linecap="butt" stroke-linejoin="miter" stroke-miterlimit="4" transform="matrix(1 0 0 1 98.64566929133858 39.118110236220474)" d="M 0 0m 0 5.6692915 c 0 0 28.346457 -5.6692915 28.346457 -5.6692915 "/>
                <path class="typst-shape" fill="#dcd7ba" fill-rule="nonzero" stroke="#000000" stroke-width="1" stroke-linecap="butt" stroke-linejoin="miter" stroke-miterlimit="4" transform="matrix(1 0 0 1 0 42.51968503937008)" d="M 0 0m 2.2677166 0 c -1.2512898 0 -2.2677166 1.0164268 -2.2677166 2.2677166 c 0 0 0 0 0 0 c 0 1.2512896 1.0164268 2.2677166 2.2677166 2.2677166 c 0 0 0 0 0 0 c 1.2512896 0 2.2677166 -1.016427 2.2677166 -2.2677166 c 0 0 0 0 0 0 c 0 -1.2512898 -1.016427 -2.2677166 -2.2677166 -2.2677166 c 0 0 0 0 0 0 Z "/>
                <path class="typst-shape" fill="#dcd7ba" fill-rule="nonzero" stroke="#000000" stroke-width="1" stroke-linecap="butt" stroke-linejoin="miter" stroke-miterlimit="4" transform="matrix(1 0 0 1 51.023622047244096 42.51968503937008)" d="M 0 0m 2.2677166 0 c -1.2512898 0 -2.2677166 1.0164268 -2.2677166 2.2677166 c 0 0 0 0 0 0 c 0 1.2512896 1.0164268 2.2677166 2.2677166 2.2677166 c 0 0 0 0 0 0 c 1.2512896 0 2.2677166 -1.016427 2.2677166 -2.2677166 c 0 0 0 0 0 0 c 0 -1.2512898 -1.016427 -2.2677166 -2.2677166 -2.2677166 c 0 0 0 0 0 0 Z "/>
                <path class="typst-shape" fill="#dcd7ba" fill-rule="nonzero" stroke="#000000" stroke-width="1" stroke-linecap="butt" stroke-linejoin="miter" stroke-miterlimit="4" transform="matrix(1 0 0 1 25.511811023622048 0)" d="M 0 0m 2.2677166 0 c -1.2512898 0 -2.2677166 1.0164268 -2.2677166 2.2677166 c 0 0 0 0 0 0 c 0 1.2512896 1.0164268 2.2677166 2.2677166 2.2677166 c 0 0 0 0 0 0 c 1.2512896 0 2.2677166 -1.016427 2.2677166 -2.2677166 c 0 0 0 0 0 0 c 0 -1.2512898 -1.016427 -2.2677166 -2.2677166 -2.2677166 c 0 0 0 0 0 0 Z "/>
                <path class="typst-shape" fill="#dcd7ba" fill-rule="nonzero" stroke="#000000" stroke-width="1" stroke-linecap="butt" stroke-linejoin="miter" stroke-miterlimit="4" transform="matrix(1 0 0 1 25.511811023622048 26.92913385826772)" d="M 0 0m 2.2677166 0 c -1.2512898 0 -2.2677166 1.0164268 -2.2677166 2.2677166 c 0 0 0 0 0 0 c 0 1.2512896 1.0164268 2.2677166 2.2677166 2.2677166 c 0 0 0 0 0 0 c 1.2512896 0 2.2677166 -1.016427 2.2677166 -2.2677166 c 0 0 0 0 0 0 c 0 -1.2512898 -1.016427 -2.2677166 -2.2677166 -2.2677166 c 0 0 0 0 0 0 Z "/>
                <path class="typst-shape" fill="#dcd7ba" fill-rule="nonzero" stroke="#000000" stroke-width="1" stroke-linecap="butt" stroke-linejoin="miter" stroke-miterlimit="4" transform="matrix(1 0 0 1 73.7007874015748 2.834645669291341)" d="M 0 0m 2.2677166 0 c -1.2512898 0 -2.2677166 1.0164268 -2.2677166 2.2677166 c 0 0 0 0 0 0 c 0 1.2512896 1.0164268 2.2677166 2.2677166 2.2677166 c 0 0 0 0 0 0 c 1.2512896 0 2.2677166 -1.016427 2.2677166 -2.2677166 c 0 0 0 0 0 0 c 0 -1.2512898 -1.016427 -2.2677166 -2.2677166 -2.2677166 c 0 0 0 0 0 0 Z "/>
                <path class="typst-shape" fill="#dcd7ba" fill-rule="nonzero" stroke="#000000" stroke-width="1" stroke-linecap="butt" stroke-linejoin="miter" stroke-miterlimit="4" transform="matrix(1 0 0 1 96.37795275590551 42.51968503937008)" d="M 0 0m 2.2677166 0 c -1.2512898 0 -2.2677166 1.0164268 -2.2677166 2.2677166 c 0 0 0 0 0 0 c 0 1.2512896 1.0164268 2.2677166 2.2677166 2.2677166 c 0 0 0 0 0 0 c 1.2512896 0 2.2677166 -1.016427 2.2677166 -2.2677166 c 0 0 0 0 0 0 c 0 -1.2512898 -1.016427 -2.2677166 -2.2677166 -2.2677166 c 0 0 0 0 0 0 Z "/>
                <path class="typst-shape" fill="#dcd7ba" fill-rule="nonzero" stroke="#000000" stroke-width="1" stroke-linecap="butt" stroke-linejoin="miter" stroke-miterlimit="4" transform="matrix(1 0 0 1 119.05511811023622 8.503937007874018)" d="M 0 0m 2.2677166 0 c -1.2512898 0 -2.2677166 1.0164268 -2.2677166 2.2677166 c 0 0 0 0 0 0 c 0 1.2512896 1.0164268 2.2677166 2.2677166 2.2677166 c 0 0 0 0 0 0 c 1.2512896 0 2.2677166 -1.016427 2.2677166 -2.2677166 c 0 0 0 0 0 0 c 0 -1.2512898 -1.016427 -2.2677166 -2.2677166 -2.2677166 c 0 0 0 0 0 0 Z "/>
                <path class="typst-shape" fill="#dcd7ba" fill-rule="nonzero" stroke="#000000" stroke-width="1" stroke-linecap="butt" stroke-linejoin="miter" stroke-miterlimit="4" transform="matrix(1 0 0 1 124.72440944881892 36.8503937007874)" d="M 0 0m 2.2677166 0 c -1.2512898 0 -2.2677166 1.0164268 -2.2677166 2.2677166 c 0 0 0 0 0 0 c 0 1.2512896 1.0164268 2.2677166 2.2677166 2.2677166 c 0 0 0 0 0 0 c 1.2512896 0 2.2677166 -1.016427 2.2677166 -2.2677166 c 0 0 0 0 0 0 c 0 -1.2512898 -1.016427 -2.2677166 -2.2677166 -2.2677166 c 0 0 0 0 0 0 Z "/>
                <path class="typst-shape" fill="#dcd7ba" fill-rule="nonzero" stroke="#000000" stroke-width="1" stroke-linecap="butt" stroke-linejoin="miter" stroke-miterlimit="4" transform="matrix(1 0 0 1 141.73228346456693 17.007874015748037)" d="M 0 0m 2.2677166 0 c -1.2512898 0 -2.2677166 1.0164268 -2.2677166 2.2677166 c 0 0 0 0 0 0 c 0 1.2512896 1.0164268 2.2677166 2.2677166 2.2677166 c 0 0 0 0 0 0 c 1.2512896 0 2.2677166 -1.016427 2.2677166 -2.2677166 c 0 0 0 0 0 0 c 0 -1.2512898 -1.016427 -2.2677166 -2.2677166 -2.2677166 c 0 0 0 0 0 0 Z "/>
            </g>
        </g>
    </g>
</svg>
