<svg class="typst-doc" viewBox="0 0 162.48818897637793 142.85370078740155" width="162.48818897637793pt" height="142.85370078740155pt" xmlns="http://www.w3.org/2000/svg" xmlns:xlink="http://www.w3.org/1999/xlink" xmlns:h5="http://www.w3.org/1999/xhtml">
    <g>
        <g class="typst-group" transform="matrix(1 0 0 1 4 4)">
            <g>
                <path class="typst-shape" fill="#dcd7ba" fill-rule="nonzero" stroke="#000000" stroke-width="1" stroke-linecap="butt" stroke-linejoin="miter" stroke-miterlimit="4" transform="matrix(1 0 0 1 20.69291338582677 13.606299212598413)" d="M 0 0m 3.4015749 0 c -1.8769346 0 -3.4015749 1.5246402 -3.4015749 3.4015749 c 0 0 0 0 0 0 c 0 1.8769343 1.5246402 3.4015749 3.4015749 3.4015749 c 0 0 0 0 0 0 c 1.8769343 0 3.4015749 -1.5246406 3.4015749 -3.4015749 c 0 0 0 0 0 0 c 0 -1.8769346 -1.5246406 -3.4015749 -3.4015749 -3.4015749 c 0 0 0 0 0 0 Z "/>
                <path class="typst-shape" fill="none" transform="matrix(1 0 0 1 4.259488188976374 40.89433070866141)" d="M 0 0c 0 0 39.67 0 39.67 0 c 0 0 0 8.92 0 8.92 c 0 0 -39.67 0 -39.67 0 c 0 0 0 0 0 0 c 0 0 0 -8.92 0 -8.92 c 0 0 0 0 0 0 Z "/>
                <g class="typst-group">
                    <g>
                        <g class="typst-group" transform="matrix(1 0 0 1 4.259488110236222 40.89433067716534)">
                            <g>
                                <g class="typst-text" transform="matrix(1 0 0 -1 0 6.580000000000001)">
                                    <use xlink:href="#gFD64361AB32440AEF3986A4C4A066EAA" x="0" y="0" fill="#dcd7ba" fill-rule="nonzero"/>
                                    <use xlink:href="#gDA9FE74D73A0D89E38B7CE1F76E719E5" x="4.65" y="0" fill="#dcd7ba" fill-rule="nonzero"/>
                                    <use xlink:href="#gAB35697028BF1689C6808A6E44AAC560" x="8.030000000000001" y="0" fill="#dcd7ba" fill-rule="nonzero"/>
                                    <use xlink:href="#g159F0090E0B924A94CECC27B9291ECE" x="11.930000000000001" y="0" fill="#dcd7ba" fill-rule="nonzero"/>
                                    <use xlink:href="#g5D6568660EE811C8D3B82D36A790D1A7" x="14.64" y="0" fill="#dcd7ba" fill-rule="nonzero"/>
                                    <use xlink:href="#g9443880C586EA2181518CD031FBB42F8" x="22.54" y="0" fill="#dcd7ba" fill-rule="nonzero"/>
                                    <use xlink:href="#g5B81369AB72CC868D96A7E73A1A3466B" x="27.73" y="0" fill="#dcd7ba" fill-rule="nonzero"/>
                                    <use xlink:href="#g30BB55BCF3872E9DF325B5A59000AF33" x="30.37" y="0" fill="#dcd7ba" fill-rule="nonzero"/>
                                    <use xlink:href="#g3EA524C410EFACCF579EC0F6D107D23" x="34.77" y="0" fill="#dcd7ba" fill-rule="nonzero"/>
                                </g>
                            </g>
                        </g>
                    </g>
                </g>
                <path class="typst-shape" fill="none" stroke="#dcd7ba" stroke-width="1" stroke-linecap="butt" stroke-linejoin="miter" stroke-miterlimit="4" transform="matrix(1 0 0 1 116.22047244094487 2.8346456692913287)" d="M 0 0m 0 28.346457 c 0 0 34.015747 -28.346457 34.015747 -28.346457 "/>
                <path class="typst-shape" fill="#dcd7ba" fill-rule="nonzero" stroke="#000000" stroke-width="1" stroke-linecap="butt" stroke-linejoin="miter" stroke-miterlimit="4" transform="matrix(1 0 0 1 113.38582677165354 28.34645669291337)" d="M 0 0m 2.8346457 0 c -1.5641122 0 -2.8346457 1.2705336 -2.8346457 2.8346457 c 0 0 0 0 0 0 c 0 1.5641122 1.2705336 2.8346457 2.8346457 2.8346457 c 0 0 0 0 0 0 c 1.5641122 0 2.8346457 -1.2705336 2.8346457 -2.8346457 c 0 0 0 0 0 0 c 0 -1.5641122 -1.2705336 -2.8346457 -2.8346457 -2.8346457 c 0 0 0 0 0 0 Z "/>
                <path class="typst-shape" fill="#dcd7ba" fill-rule="nonzero" stroke="#000000" stroke-width="1" stroke-linecap="butt" stroke-linejoin="miter" stroke-miterlimit="4" transform="matrix(1 0 0 1 147.4015748031496 0)" d="M 0 0m 2.8346457 0 c -1.5641122 0 -2.8346457 1.2705336 -2.8346457 2.8346457 c 0 0 0 0 0 0 c 0 1.5641122 1.2705336 2.8346457 2.8346457 2.8346457 c 0 0 0 0 0 0 c 1.5641122 0 2.8346457 -1.2705336 2.8346457 -2.8346457 c 0 0 0 0 0 0 c 0 -1.5641122 -1.2705336 -2.8346457 -2.8346457 -2.8346457 c 0 0 0 0 0 0 Z "/>
                <path class="typst-shape" fill="none" transform="matrix(1 0 0 1 113.3933464566929 40.89433070866141)" d="M 0 0c 0 0 39.67 0 39.67 0 c 0 0 0 8.92 0 8.92 c 0 0 -39.67 0 -39.67 0 c 0 0 0 0 0 0 c 0 0 0 -8.92 0 -8.92 c 0 0 0 0 0 0 Z "/>
                <g class="typst-group">
                    <g>
                        <g class="typst-group" transform="matrix(1 0 0 1 113.39334637795272 40.89433067716534)">
                            <g>
                                <g class="typst-text" transform="matrix(1 0 0 -1 0 6.580000000000001)">
                                    <use xlink:href="#gC3A59AFDCE4FFFA9B801FCED4A906C67" x="0" y="0" fill="#dcd7ba" fill-rule="nonzero"/>
                                    <use xlink:href="#gDA9FE74D73A0D89E38B7CE1F76E719E5" x="4.65" y="0" fill="#dcd7ba" fill-rule="nonzero"/>
                                    <use xlink:href="#gAB35697028BF1689C6808A6E44AAC560" x="8.030000000000001" y="0" fill="#dcd7ba" fill-rule="nonzero"/>
                                    <use xlink:href="#g159F0090E0B924A94CECC27B9291ECE" x="11.930000000000001" y="0" fill="#dcd7ba" fill-rule="nonzero"/>
                                    <use xlink:href="#g5D6568660EE811C8D3B82D36A790D1A7" x="14.64" y="0" fill="#dcd7ba" fill-rule="nonzero"/>
                                    <use xlink:href="#g9443880C586EA2181518CD031FBB42F8" x="22.54" y="0" fill="#dcd7ba" fill-rule="nonzero"/>
                                    <use xlink:href="#g5B81369AB72CC868D96A7E73A1A3466B" x="27.73" y="0" fill="#dcd7ba" fill-rule="nonzero"/>
                                    <use xlink:href="#g30BB55BCF3872E9DF325B5A59000AF33" x="30.37" y="0" fill="#dcd7ba" fill-rule="nonzero"/>
                                    <use xlink:href="#g3EA524C410EFACCF579EC0F6D107D23" x="34.77" y="0" fill="#dcd7ba" fill-rule="nonzero"/>
                                </g>
                            </g>
                        </g>
                    </g>
                </g>
                <path class="typst-shape" fill="#cce5ff" fill-rule="nonzero" stroke="#dcd7ba" stroke-width="1" stroke-linecap="butt" stroke-linejoin="miter" stroke-miterlimit="4" transform="matrix(1 0 0 1 2.8346456692913384 82.2047244094488)" d="M 0 0m 0 34.015747 c 0 0 42.519684 0 42.519684 0 c 0 0 -21.259842 -34.015747 -21.259842 -34.015747 c 0 0 0 0 0 0 c 0 0 -21.259842 34.015747 -21.259842 34.015747 c 0 0 0 0 0 0 Z "/>
                <path class="typst-shape" fill="#dcd7ba" fill-rule="nonzero" stroke="#000000" stroke-width="1" stroke-linecap="butt" stroke-linejoin="miter" stroke-miterlimit="4" transform="matrix(1 0 0 1 0 113.38582677165353)" d="M 0 0m 2.8346457 0 c -1.5641122 0 -2.8346457 1.2705336 -2.8346457 2.8346457 c 0 0 0 0 0 0 c 0 1.5641122 1.2705336 2.8346457 2.8346457 2.8346457 c 0 0 0 0 0 0 c 1.5641122 0 2.8346457 -1.2705336 2.8346457 -2.8346457 c 0 0 0 0 0 0 c 0 -1.5641122 -1.2705336 -2.8346457 -2.8346457 -2.8346457 c 0 0 0 0 0 0 Z "/>
                <path class="typst-shape" fill="#dcd7ba" fill-rule="nonzero" stroke="#000000" stroke-width="1" stroke-linecap="butt" stroke-linejoin="miter" stroke-miterlimit="4" transform="matrix(1 0 0 1 42.51968503937008 113.38582677165353)" d="M 0 0m 2.8346457 0 c -1.5641122 0 -2.8346457 1.2705336 -2.8346457 2.8346457 c 0 0 0 0 0 0 c 0 1.5641122 1.2705336 2.8346457 2.8346457 2.8346457 c 0 0 0 0 0 0 c 1.5641122 0 2.8346457 -1.2705336 2.8346457 -2.8346457 c 0 0 0 0 0 0 c 0 -1.5641122 -1.2705336 -2.8346457 -2.8346457 -2.8346457 c 0 0 0 0 0 0 Z "/>
                <path class="typst-shape" fill="#dcd7ba" fill-rule="nonzero" stroke="#000000" stroke-width="1" stroke-linecap="butt" stroke-linejoin="miter" stroke-miterlimit="4" transform="matrix(1 0 0 1 21.25984251968504 79.37007874015748)" d="M 0 0m 2.8346457 0 c -1.5641122 0 -2.8346457 1.2705336 -2.8346457 2.8346457 c 0 0 0 0 0 0 c 0 1.5641122 1.2705336 2.8346457 2.8346457 2.8346457 c 0 0 0 0 0 0 c 1.5641122 0 2.8346457 -1.2705336 2.8346457 -2.8346457 c 0 0 0 0 0 0 c 0 -1.5641122 -1.2705336 -2.8346457 -2.8346457 -2.8346457 c 0 0 0 0 0 0 Z "/>
                <path class="typst-shape" fill="none" transform="matrix(1 0 0 1 4.259488188976374 125.93370078740156)" d="M 0 0c 0 0 39.67 0 39.67 0 c 0 0 0 8.92 0 8.92 c 0 0 -39.67 0 -39.67 0 c 0 0 0 0 0 0 c 0 0 0 -8.92 0 -8.92 c 0 0 0 0 0 0 Z "/>
                <g class="typst-group">
                    <g>
                        <g class="typst-group" transform="matrix(1 0 0 1 4.259488110236222 125.93370075590552)">
                            <g>
                                <g class="typst-text" transform="matrix(1 0 0 -1 0 6.580000000000001)">
                                    <use xlink:href="#gD8635BB3349EABF71F232D44AAB121D4" x="0" y="0" fill="#dcd7ba" fill-rule="nonzero"/>
                                    <use xlink:href="#gDA9FE74D73A0D89E38B7CE1F76E719E5" x="4.65" y="0" fill="#dcd7ba" fill-rule="nonzero"/>
                                    <use xlink:href="#gAB35697028BF1689C6808A6E44AAC560" x="8.030000000000001" y="0" fill="#dcd7ba" fill-rule="nonzero"/>
                                    <use xlink:href="#g159F0090E0B924A94CECC27B9291ECE" x="11.930000000000001" y="0" fill="#dcd7ba" fill-rule="nonzero"/>
                                    <use xlink:href="#g5D6568660EE811C8D3B82D36A790D1A7" x="14.64" y="0" fill="#dcd7ba" fill-rule="nonzero"/>
                                    <use xlink:href="#g9443880C586EA2181518CD031FBB42F8" x="22.54" y="0" fill="#dcd7ba" fill-rule="nonzero"/>
                                    <use xlink:href="#g5B81369AB72CC868D96A7E73A1A3466B" x="27.73" y="0" fill="#dcd7ba" fill-rule="nonzero"/>
                                    <use xlink:href="#g30BB55BCF3872E9DF325B5A59000AF33" x="30.37" y="0" fill="#dcd7ba" fill-rule="nonzero"/>
                                    <use xlink:href="#g3EA524C410EFACCF579EC0F6D107D23" x="34.77" y="0" fill="#dcd7ba" fill-rule="nonzero"/>
                                </g>
                            </g>
                        </g>
                    </g>
                </g>
                <path class="typst-shape" fill="#e6f0ff" fill-rule="nonzero" stroke="#dcd7ba" stroke-width="1" stroke-linecap="butt" stroke-linejoin="miter" stroke-miterlimit="4" transform="matrix(1 0 0 1 109.13385826771653 82.2047244094488)" d="M 0 0m 0 34.015747 c 0 0 42.519684 0 42.519684 0 c 0 0 -21.259842 -34.015747 -21.259842 -34.015747 c 0 0 0 0 0 0 c 0 0 -21.259842 34.015747 -21.259842 34.015747 c 0 0 0 0 0 0 Z "/>
                <path class="typst-shape" fill="#99c2ff" fill-rule="nonzero" stroke="#dcd7ba" stroke-width="1" stroke-linecap="butt" stroke-linejoin="miter" stroke-miterlimit="4" transform="matrix(1 0 0 1 109.13385826771653 102.04724409448818)" d="M 0 0m 0 14.173228 c 0 0 42.519684 0 42.519684 0 c 0 0 -21.259842 -14.173228 -21.259842 -14.173228 c 0 0 0 0 0 0 c 0 0 -21.259842 14.173228 -21.259842 14.173228 c 0 0 0 0 0 0 Z "/>
                <path class="typst-shape" fill="#b3d1ff" fill-rule="nonzero" stroke="#dcd7ba" stroke-width="1" stroke-linecap="butt" stroke-linejoin="miter" stroke-miterlimit="4" transform="matrix(1 0 0 1 130.39370078740157 82.2047244094488)" d="M 0 0m 21.259842 34.015747 c 0 0 -21.259842 -34.015747 -21.259842 -34.015747 c 0 0 0 19.84252 0 19.84252 c 0 0 0 0 0 0 c 0 0 21.259842 14.173227 21.259842 14.173227 c 0 0 0 0 0 0 Z "/>
                <path class="typst-shape" fill="#cce5ff" fill-rule="nonzero" stroke="#dcd7ba" stroke-width="1" stroke-linecap="butt" stroke-linejoin="miter" stroke-miterlimit="4" transform="matrix(1 0 0 1 109.13385826771653 82.2047244094488)" d="M 0 0m 0 34.015747 c 0 0 21.259842 -34.015747 21.259842 -34.015747 c 0 0 0 19.84252 0 19.84252 c 0 0 0 0 0 0 c 0 0 -21.259842 14.173227 -21.259842 14.173227 c 0 0 0 0 0 0 Z "/>
                <path class="typst-shape" fill="#dcd7ba" fill-rule="nonzero" stroke="#000000" stroke-width="1" stroke-linecap="butt" stroke-linejoin="miter" stroke-miterlimit="4" transform="matrix(1 0 0 1 106.2992125984252 113.38582677165353)" d="M 0 0m 2.8346457 0 c -1.5641122 0 -2.8346457 1.2705336 -2.8346457 2.8346457 c 0 0 0 0 0 0 c 0 1.5641122 1.2705336 2.8346457 2.8346457 2.8346457 c 0 0 0 0 0 0 c 1.5641122 0 2.8346457 -1.2705336 2.8346457 -2.8346457 c 0 0 0 0 0 0 c 0 -1.5641122 -1.2705336 -2.8346457 -2.8346457 -2.8346457 c 0 0 0 0 0 0 Z "/>
                <path class="typst-shape" fill="#dcd7ba" fill-rule="nonzero" stroke="#000000" stroke-width="1" stroke-linecap="butt" stroke-linejoin="miter" stroke-miterlimit="4" transform="matrix(1 0 0 1 148.8188976377953 113.38582677165353)" d="M 0 0m 2.8346457 0 c -1.5641122 0 -2.8346457 1.2705336 -2.8346457 2.8346457 c 0 0 0 0 0 0 c 0 1.5641122 1.2705336 2.8346457 2.8346457 2.8346457 c 0 0 0 0 0 0 c 1.5641122 0 2.8346457 -1.2705336 2.8346457 -2.8346457 c 0 0 0 0 0 0 c 0 -1.5641122 -1.2705336 -2.8346457 -2.8346457 -2.8346457 c 0 0 0 0 0 0 Z "/>
                <path class="typst-shape" fill="#dcd7ba" fill-rule="nonzero" stroke="#000000" stroke-width="1" stroke-linecap="butt" stroke-linejoin="miter" stroke-miterlimit="4" transform="matrix(1 0 0 1 127.55905511811024 79.37007874015748)" d="M 0 0m 2.8346457 0 c -1.5641122 0 -2.8346457 1.2705336 -2.8346457 2.8346457 c 0 0 0 0 0 0 c 0 1.5641122 1.2705336 2.8346457 2.8346457 2.8346457 c 0 0 0 0 0 0 c 1.5641122 0 2.8346457 -1.2705336 2.8346457 -2.8346457 c 0 0 0 0 0 0 c 0 -1.5641122 -1.2705336 -2.8346457 -2.8346457 -2.8346457 c 0 0 0 0 0 0 Z "/>
                <path class="typst-shape" fill="#dcd7ba" fill-rule="nonzero" stroke="#000000" stroke-width="1" stroke-linecap="butt" stroke-linejoin="miter" stroke-miterlimit="4" transform="matrix(1 0 0 1 127.55905511811024 99.21259842519683)" d="M 0 0m 2.8346457 0 c -1.5641122 0 -2.8346457 1.2705336 -2.8346457 2.8346457 c 0 0 0 0 0 0 c 0 1.5641122 1.2705336 2.8346457 2.8346457 2.8346457 c 0 0 0 0 0 0 c 1.5641122 0 2.8346457 -1.2705336 2.8346457 -2.8346457 c 0 0 0 0 0 0 c 0 -1.5641122 -1.2705336 -2.8346457 -2.8346457 -2.8346457 c 0 0 0 0 0 0 Z "/>
                <path class="typst-shape" fill="none" transform="matrix(1 0 0 1 110.55870078740158 125.93370078740156)" d="M 0 0c 0 0 39.67 0 39.67 0 c 0 0 0 8.92 0 8.92 c 0 0 -39.67 0 -39.67 0 c 0 0 0 0 0 0 c 0 0 0 -8.92 0 -8.92 c 0 0 0 0 0 0 Z "/>
                <g class="typst-group">
                    <g>
                        <g class="typst-group" transform="matrix(1 0 0 1 110.55870070866142 125.93370075590552)">
                            <g>
                                <g class="typst-text" transform="matrix(1 0 0 -1 0 6.580000000000001)">
                                    <use xlink:href="#g1FECF733814652199C5A365A819D1EA" x="0" y="0" fill="#dcd7ba" fill-rule="nonzero"/>
                                    <use xlink:href="#gDA9FE74D73A0D89E38B7CE1F76E719E5" x="4.65" y="0" fill="#dcd7ba" fill-rule="nonzero"/>
                                    <use xlink:href="#gAB35697028BF1689C6808A6E44AAC560" x="8.030000000000001" y="0" fill="#dcd7ba" fill-rule="nonzero"/>
                                    <use xlink:href="#g159F0090E0B924A94CECC27B9291ECE" x="11.930000000000001" y="0" fill="#dcd7ba" fill-rule="nonzero"/>
                                    <use xlink:href="#g5D6568660EE811C8D3B82D36A790D1A7" x="14.64" y="0" fill="#dcd7ba" fill-rule="nonzero"/>
                                    <use xlink:href="#g9443880C586EA2181518CD031FBB42F8" x="22.54" y="0" fill="#dcd7ba" fill-rule="nonzero"/>
                                    <use xlink:href="#g5B81369AB72CC868D96A7E73A1A3466B" x="27.73" y="0" fill="#dcd7ba" fill-rule="nonzero"/>
                                    <use xlink:href="#g30BB55BCF3872E9DF325B5A59000AF33" x="30.37" y="0" fill="#dcd7ba" fill-rule="nonzero"/>
                                    <use xlink:href="#g3EA524C410EFACCF579EC0F6D107D23" x="34.77" y="0" fill="#dcd7ba" fill-rule="nonzero"/>
                                </g>
                            </g>
                        </g>
                    </g>
                </g>
            </g>
        </g>
    </g>
    <defs id="glyph">
        <symbol id="gFD64361AB32440AEF3986A4C4A066EAA" overflow="visible">
            <path d="M 0 0m 2.28 -0.099999994 c 0.77 0 1.9399998 0.78 1.9399998 3.1299999 c 0 0.99 -0.23999977 1.8399999 -0.6799998 2.4199998 c -0.26 0.3499999 -0.68000007 0.6500001 -1.22 0.6500001 c -0.99 0 -1.93 -1.1799998 -1.93 -3.16 c 0 -1.0699998 0.32999998 -2.0699997 0.88 -2.62 c 0.27999997 -0.28 0.62 -0.42 1.01 -0.42 Z m 0.03999996 5.85 c 0.17000008 0 0.32999992 -0.059999943 0.45000005 -0.17000008 c 0.30999994 -0.26000023 0.5799999 -1.02 0.5799999 -2.36 c 0 -0.9200001 -0.029999971 -1.5500001 -0.17000008 -2.06 c -0.21999979 -0.81999993 -0.7099998 -0.90999997 -0.88999987 -0.90999997 c -0.92999995 0 -1.03 1.7099999 -1.03 2.58 c 0 2.46 0.61 2.92 1.06 2.92 Z "/>
        </symbol>
        <symbol id="gDA9FE74D73A0D89E38B7CE1F76E719E5" overflow="visible">
            <path d="M 0 0m 2.71 2.23 c 0.12999988 0 0.26999998 0.27999997 0.26999998 0.39999986 c 0 0.10000014 -0.0400002 0.20000005 -0.1400001 0.20000005 h -2.19 c -0.120000005 0 -0.25 -0.23000002 -0.25 -0.4100001 c 0 -0.099999905 0.060000002 -0.18999982 0.15000004 -0.18999982 Z "/>
        </symbol>
        <symbol id="gAB35697028BF1689C6808A6E44AAC560" overflow="visible">
            <path d="M 0 0m 0.48 1.38 c 0.03999999 -0.49 0.07000002 -0.96000004 0.07000002 -1.38 c 0.099999964 0.02 0.19999999 0.03 0.24999994 0.03 c 0.07000005 0 0.13000005 0 0.20000005 -0.02 c 0.26999998 -0.07 0.53999996 -0.10999999 0.90999997 -0.10999999 c 0.56000006 0 1.59 0.26999998 1.59 1.26 c 0 0.67999995 -0.49 1.08 -1.1700001 1.33 c -0.5999999 0.23000002 -1 0.37999988 -1 0.9299998 c 0 0.4100001 0.36 0.6400001 0.70000005 0.6400001 c 0.22000003 0 0.79999995 -0.07999992 0.93000007 -0.93000007 c 0.059999943 -0.059999943 0.26 -0.049999952 0.31999993 0.00999999 c 0.029999971 0.36000013 0.049999952 0.73 0.059999943 1.06 c -0.30999994 0.05000019 -0.78999996 0.19000006 -1.31 0.19000006 c -0.74 0 -1.41 -0.48000002 -1.41 -1.1199999 c 0 -0.73 0.32999998 -1.04 1.0999999 -1.36 c 0.83000004 -0.34000003 1.0200001 -0.54999995 1.0200001 -0.97999996 c 0 -0.49 -0.48000002 -0.70000005 -0.85 -0.70000005 c -0.39 0 -0.61 0.13 -0.71000004 0.24000001 c -0.21999997 0.22999999 -0.32999998 0.66999996 -0.39 0.91999996 c -0.060000002 0.059999943 -0.25 0.049999952 -0.30999997 -0.00999999 Z "/>
        </symbol>
        <symbol id="g159F0090E0B924A94CECC27B9291ECE" overflow="visible">
            <path d="M 0 0m 1.81 1.22 v 1.99 c 0 0.49999976 0.03999996 1.1399999 0.03999996 1.1399999 c 0 0.03999996 -0.049999952 0.07000017 -0.13 0.07000017 c -0.27999997 -0.11000013 -0.67999995 -0.20000029 -1.3699999 -0.28999996 c -0.02000001 -0.06000042 0 -0.22000027 0.02000001 -0.2800002 c 0.54999995 -0.049999952 0.65 -0.109999895 0.65 -0.68000007 v -1.9499998 c 0 -0.83000004 -0.110000014 -0.86 -0.72 -0.91 c -0.059999987 -0.060000002 -0.059999987 -0.27 0 -0.33 c 0.33 0.01 0.72 0.02 1.12 0.02 c 0.39999998 0 0.7800001 -0.01 1.11 -0.02 c 0.059999943 0.06 0.059999943 0.27 0 0.33 c -0.61 0.03999999 -0.72 0.07999998 -0.72 0.91 Z m -0.90999997 4.7699995 c 0 -0.25999975 0.24000001 -0.52 0.48000002 -0.52 c 0.27999997 0 0.52 0.26999998 0.52 0.48000002 c 0 0.24000025 -0.21000004 0.52 -0.48000002 0.52 c -0.24000001 0 -0.52 -0.23999977 -0.52 -0.48000002 Z "/>
        </symbol>
        <symbol id="g5D6568660EE811C8D3B82D36A790D1A7" overflow="visible">
            <path d="M 0 0m 1.6999999 3.58 c -0.00999999 0.29999995 -0.029999971 0.65999985 -0.07999992 0.75999975 c -0.0200001 0.05000019 -0.04000008 0.0800004 -0.120000005 0.0800004 c -0.27999997 -0.11000013 -0.54 -0.20000029 -1.23 -0.28999996 c -0.01999998 -0.06000042 0 -0.22000027 0.02000001 -0.2800002 c 0.53999996 -0.049999952 0.65 -0.099999905 0.65 -0.68000007 v -1.9499998 c 0 -0.82000005 -0.13 -0.87 -0.68 -0.91 c -0.060000002 -0.060000002 -0.060000002 -0.27 0 -0.33 c 0.3 0.01 0.68 0.02 1.0799999 0.02 c 0.4000001 0 0.71000004 -0.01 1.01 -0.02 c 0.059999943 0.06 0.059999943 0.27 0 0.33 c -0.51 0.049999982 -0.6199999 0.089999974 -0.6199999 0.91 v 1.6399999 c 0 0.21000004 0.089999914 0.32999992 0.16999996 0.42000008 c 0.39999998 0.38999987 0.76999986 0.5899999 1.08 0.5899999 c 0.37999988 0 0.65999985 -0.24000001 0.65999985 -0.90999985 v -1.74 c 0 -0.82000005 -0.07999992 -0.87 -0.6199999 -0.91 c -0.049999952 -0.060000002 -0.049999952 -0.27 0 -0.33 c 0.25 0.01 0.6199999 0.02 1.02 0.02 c 0.4000001 0 0.73 -0.01 0.98 -0.02 c 0.049999714 0.06 0.049999714 0.27 0 0.33 c -0.5 0.03999999 -0.59000015 0.089999974 -0.59000015 0.91 v 1.5899999 c 0 0.1400001 0 0.27999997 -0.009999752 0.4000001 c 0.48000002 0.53 0.9299998 0.65999985 1.3199997 0.65999985 c 0.3800001 0 0.5999999 -0.22000003 0.5999999 -0.88999987 v -1.76 c 0 -0.82000005 -0.099999905 -0.87 -0.6199999 -0.91 c -0.049999714 -0.060000002 -0.049999714 -0.27 0 -0.33 c 0.25 0.01 0.6199999 0.02 1.02 0.02 c 0.4000001 0 0.75 -0.01 1.0300002 -0.02 c 0.049999714 0.06 0.049999714 0.27 0 0.33 c -0.5500002 0.03999999 -0.64000034 0.089999974 -0.64000034 0.91 v 1.5799999 c 0 0.88999987 -0.14999962 1.5899999 -1.0299997 1.5899999 c -0.5100002 0 -1.1300001 -0.19000006 -1.6500001 -0.74 c -0.029999733 -0.029999971 -0.089999676 -0.07999992 -0.11000013 0.00999999 c -0.089999676 0.40999985 -0.47999978 0.73 -0.99999976 0.73 c -0.5799999 0 -1.0999999 -0.34000015 -1.52 -0.80999994 c -0.049999952 -0.049999952 -0.110000014 -0.119999886 -0.120000005 0 Z "/>
        </symbol>
        <symbol id="g9443880C586EA2181518CD031FBB42F8" overflow="visible">
            <path d="M 0 0m 1.56 3.6799998 c -0.00999999 0.3000002 -0.029999971 0.55999994 -0.07999992 0.65999985 c -0.0200001 0.05000019 -0.04000008 0.0800004 -0.120000005 0.0800004 c -0.2800001 -0.11000013 -0.54 -0.20000029 -1.23 -0.28999996 c -0.019999996 -0.06000042 0 -0.22000027 0.019999996 -0.2800002 c 0.54 -0.049999952 0.65 -0.099999905 0.65 -0.68000007 v -4.27 c 0 -0.8299999 -0.109999955 -0.8799999 -0.71999997 -0.90999997 c -0.06 -0.059999943 -0.06 -0.26999998 0 -0.32999992 c 0.34999996 0.00999999 0.71999997 0.01999998 1.1199999 0.01999998 c 0.39999998 0 0.88 -0.00999999 1.2099999 -0.01999998 c 0.06000018 0.059999943 0.06000018 0.26999998 0 0.32999992 c -0.7099999 0.04000008 -0.81999993 0.08000004 -0.81999993 0.90999997 v 1.08 c 0 0.13 0.04000008 0.11999999 0.1400001 0.08 c 0.24999988 -0.099999994 0.54999995 -0.16 0.8699999 -0.16 c 0.55999994 0 1.06 0.16999999 1.4699998 0.55999994 c 0.47000027 0.45999998 0.74000025 1.0799999 0.74000025 1.8899999 c 0 1.06 -0.75 2.04 -1.77 2.04 c -0.46000004 0 -0.97 -0.3000002 -1.37 -0.75 c -0.059999943 -0.059999943 -0.100000024 -0.059999943 -0.110000014 0.03999996 Z m 0.19000006 -0.3699999 c 0.26 0.31999993 0.72 0.6199999 1.01 0.6199999 c 0.63999987 0 1.1899998 -0.7199998 1.1899998 -1.8499999 c 0 -0.81999993 -0.28999996 -1.8399999 -1.4099998 -1.8399999 c -0.18000007 0 -0.53 0.049999997 -0.71000004 0.21 c -0.19999993 0.18 -0.24000001 0.24000001 -0.24000001 0.59999996 v 1.8199999 c 0 0.21000004 0.04000008 0.29999995 0.16000009 0.44000006 Z "/>
        </symbol>
        <symbol id="g5B81369AB72CC868D96A7E73A1A3466B" overflow="visible">
            <path d="M 0 0m 0.95 1.22 c 0 -0.83000004 -0.110000014 -0.88 -0.72 -0.91 c -0.059999987 -0.060000002 -0.059999987 -0.27 0 -0.33 c 0.35 0.01 0.72 0.02 1.12 0.02 c 0.39999998 0 0.77999985 -0.01 1.11 -0.02 c 0.059999943 0.06 0.059999943 0.27 0 0.33 c -0.61000013 0.030000001 -0.72 0.07999998 -0.72 0.91 v 4.6099997 c 0 0.6500001 0.03999996 1.0499997 0.03999996 1.0499997 c 0 0.07000017 -0.03999996 0.10000038 -0.13 0.10000038 c -0.25 -0.10000038 -1 -0.24000025 -1.4 -0.26999998 c -0.02000001 -0.0800004 0 -0.24000025 0.060000002 -0.3000002 c 0.58 -0.03999996 0.64 -0.07000017 0.64 -0.8200002 Z "/>
        </symbol>
        <symbol id="g30BB55BCF3872E9DF325B5A59000AF33" overflow="visible">
            <path d="M 0 0m 3.86 0.93 c -0.3699999 -0.38 -0.6600001 -0.54 -1.24 -0.54 c -0.3599999 0 -0.78 0.20999998 -1.0899999 0.72 c -0.20000005 0.32999992 -0.32000005 0.78999996 -0.32000005 1.37 l 2.6599998 -0.01999998 c 0.120000124 0 0.19000006 0.059999943 0.19000006 0.16999984 c 0 0.84000015 -0.29999995 1.74 -1.69 1.74 c -0.8699999 0 -1.9999999 -0.8299999 -1.9999999 -2.35 c 0 -0.56000006 0.13999999 -1.1 0.46999997 -1.48 c 0.33999997 -0.39999998 0.81 -0.64 1.53 -0.64 c 0.76 0 1.3 0.35 1.6999998 0.87 c -0.029999733 0.100000024 -0.089999676 0.14999998 -0.2099998 0.16000003 Z m -2.62 1.8899999 c 0.18999994 1.1299999 0.88999987 1.22 1.1299999 1.22 c 0.3800001 0 0.8299999 -0.21000004 0.8299999 -1.05 c 0 -0.09000015 -0.03999996 -0.1400001 -0.14999986 -0.1400001 Z "/>
        </symbol>
        <symbol id="g3EA524C410EFACCF579EC0F6D107D23" overflow="visible">
            <path d="M 0 0m 1.8199999 3.58 c -0.23000002 0.3399999 -0.15999997 0.3499999 0.28999996 0.4000001 c 0.059999943 0.059999943 0.059999943 0.26999998 0 0.32999992 c -0.26999998 -0.010000229 -0.7099999 -0.01999998 -1.0099999 -0.01999998 c -0.30000007 0 -0.6 0.009999752 -0.86 0.01999998 c -0.060000002 -0.059999943 -0.060000002 -0.26999998 0 -0.32999992 c 0.33999997 -0.03000021 0.61999995 -0.20000005 0.9 -0.61000013 l 0.87 -1.27 c 0.049999952 -0.06999993 0.049999952 -0.099999905 0.00999999 -0.14999998 l -0.84000003 -1.0799999 c -0.39999998 -0.51 -0.61999995 -0.54 -0.96999997 -0.56 c -0.060000002 -0.060000002 -0.060000002 -0.27 0 -0.33 c 0.2 0.01 0.42000002 0.02 0.72 0.02 c 0.3 0 0.58 -0.01 0.84 -0.02 c 0.059999943 0.06 0.059999943 0.27 0 0.33 c -0.36 0.03999999 -0.44000006 0.07999998 -0.22000003 0.39999998 l 0.6300001 0.91 c 0.07999992 0.120000005 0.119999886 0.110000014 0.17999983 0.01999998 l 0.5799999 -0.8 c 0.35000014 -0.48 0.19000006 -0.49999997 -0.12999988 -0.53 c -0.059999943 -0.060000002 -0.059999943 -0.27 0 -0.33 c 0.29999995 0.01 0.6299999 0.02 0.99 0.02 c 0.37999988 0 0.64999986 -0.01 0.8900001 -0.02 c 0.059999943 0.06 0.059999943 0.27 0 0.33 c -0.4500003 0.030000001 -0.6000004 0.060000002 -1.0000002 0.63 l -0.89999986 1.27 c -0.03999996 0.059999943 -0.049999952 0.089999914 0 0.14999986 l 0.8399999 1.0699999 c 0.37000012 0.47000003 0.6099999 0.52 0.97 0.5500002 c 0.059999943 0.059999943 0.059999943 0.26999998 0 0.32999992 c -0.19999981 -0.010000229 -0.42999983 -0.01999998 -0.73 -0.01999998 c -0.29999995 0 -0.5799999 0.009999752 -0.8399999 0.01999998 c -0.059999943 -0.059999943 -0.059999943 -0.26999998 0 -0.32999992 c 0.3699999 -0.0400002 0.48000002 -0.07000017 0.24000001 -0.4100001 l -0.6500001 -0.9100001 c -0.06999993 -0.099999905 -0.109999895 -0.089999914 -0.19000006 0.01999998 Z "/>
        </symbol>
        <symbol id="gC3A59AFDCE4FFFA9B801FCED4A906C67" overflow="visible">
            <path d="M 0 0m 2.8799999 1.22 v 3.47 c 0 0.5999999 0.00999999 1.21 0.029999971 1.3399997 c 0 0.05000019 -0.01999998 0.05000019 -0.059999943 0.05000019 c -0.54999995 -0.34000015 -1.0799999 -0.59000015 -1.9599999 -1 c 0.01999998 -0.11000013 0.060000002 -0.21000004 0.14999998 -0.26999998 c 0.46000004 0.19000006 0.67999995 0.25 0.87 0.25 c 0.16999996 0 0.19999993 -0.24000025 0.19999993 -0.5799999 v -3.26 c 0 -0.83000004 -0.26999998 -0.88 -0.9699999 -0.91 c -0.060000062 -0.060000002 -0.060000062 -0.27 0 -0.33 c 0.49 0.01 0.85 0.02 1.39 0.02 c 0.48000002 0 0.72 -0.01 1.22 -0.02 c 0.059999943 0.06 0.059999943 0.27 0 0.33 c -0.70000005 0.030000001 -0.8700001 0.07999998 -0.8700001 0.91 Z "/>
        </symbol>
        <symbol id="gD8635BB3349EABF71F232D44AAB121D4" overflow="visible">
            <path d="M 0 0m 0.61 4.68 c 0 -0.21000004 0.18999994 -0.38999987 0.39999998 -0.38999987 c 0.16999996 0 0.47000003 0.17999983 0.47000003 0.4000001 c 0 0.07999992 -0.0200001 0.13999987 -0.04000008 0.21000004 c -0.01999998 0.069999695 -0.07999992 0.15999985 -0.07999992 0.23999977 c 0 0.25 0.26 0.61000013 0.9899999 0.61000013 c 0.36000013 0 0.8700001 -0.25 0.8700001 -1.21 c 0 -0.6400001 -0.23000002 -1.1600001 -0.8200002 -1.76 l -0.7399999 -0.73 c -0.97999996 -1 -1.14 -1.48 -1.14 -2.07 c 0 0 0.51 0.02 0.83000004 0.02 h 1.7499999 c 0.31999993 0 0.78 -0.02 0.78 -0.02 c 0.12999988 0.53 0.23000026 1.28 0.24000001 1.5799999 c -0.059999943 0.05000007 -0.19000006 0.07000005 -0.28999996 0.05000007 c -0.17000008 -0.71000004 -0.3399999 -0.96000004 -0.70000005 -0.96000004 h -1.7799999 c 0 0.48000002 0.68999994 1.16 0.7399999 1.21 l 1.01 0.9699999 c 0.56999993 0.54999995 1 0.99 1 1.75 c 0 1.0799999 -0.8799999 1.52 -1.69 1.52 c -1.1099999 0 -1.7999998 -0.8200002 -1.7999998 -1.4200001 Z "/>
        </symbol>
        <symbol id="g1FECF733814652199C5A365A819D1EA" overflow="visible">
            <path d="M 0 0m 2.1499999 5.75 c 0.43000007 0 0.83000016 -0.26000023 0.83000016 -0.9000001 c 0 -0.5 -0.58000016 -1.27 -1.57 -1.4100001 l 0.049999952 -0.31999993 c 0.17000008 0.01999998 0.35000002 0.01999998 0.48000002 0.01999998 c 0.57000005 0 1.3100001 -0.15999985 1.3100001 -1.29 c 0 -1.3299999 -0.8900001 -1.5999999 -1.24 -1.5999999 c -0.51 0 -0.6 0.22999999 -0.72 0.40999997 c -0.100000024 0.13999999 -0.23000002 0.26 -0.43 0.26 c -0.20999998 0 -0.41999996 -0.19 -0.41999996 -0.34999996 c 0 -0.39999998 0.84 -0.66999996 1.44 -0.66999996 c 1.1899999 0 2.25 0.77 2.25 2.09 c 0 1.0899999 -0.8200002 1.48 -1.4100001 1.5799999 l -0.00999999 0.01999998 c 0.81999993 0.3900001 1.05 0.79999995 1.05 1.3300002 c 0 0.2999997 -0.07000017 0.53999996 -0.31000018 0.78999996 c -0.21999979 0.21999979 -0.56999993 0.38999987 -1.0899999 0.38999987 c -1.4699999 0 -1.8899999 -0.96000004 -1.8899999 -1.29 c 0 -0.13999987 0.099999994 -0.34000015 0.34 -0.34000015 c 0.34999996 0 0.38999993 0.32999992 0.38999993 0.52 c 0 0.63999987 0.69000006 0.7600002 0.9499999 0.7600002 Z "/>
        </symbol>
    </defs>
</svg>
